<svg width="80" height="40" viewBox="0 0 34 26" fill="none" xmlns="http://www.w3.org/2000/svg">
<path fill-rule="evenodd" clip-rule="evenodd" d="M15.6 13C15.6 12.4682 15.5202 11.955 15.3718 11.4718C15.855 11.6202 16.3682 11.7 16.9 11.7C17.4318 11.7 17.945 11.6202 18.4282 11.4718C18.2798 11.955 18.2 12.4682 18.2 13C18.2 15.8719 20.5281 18.2 23.4 18.2C26.2719 18.2 28.6 15.8719 28.6 13C28.6 12.5502 28.5429 12.1137 28.4355 11.6974C28.4901 11.6991 28.545 11.7 28.6 11.7C31.4719 11.7 33.8 9.37188 33.8 6.5C33.8 3.62812 31.4719 1.3 28.6 1.3C28.0711 1.3 27.5606 1.37897 27.0797 1.52577C26.1385 0.583154 24.8373 0 23.4 0C21.7717 0 20.3182 0.748436 19.3647 1.92007C18.6312 1.5245 17.7918 1.3 16.9 1.3C16.3711 1.3 15.8606 1.37897 15.3797 1.52577C14.4385 0.583154 13.1373 0 11.7 0C10.0717 0 8.61816 0.748436 7.66469 1.92007C6.93118 1.5245 6.09181 1.3 5.2 1.3C2.32812 1.3 0 3.62812 0 6.5C0 9.37188 2.32812 11.7 5.2 11.7C5.25503 11.7 5.30986 11.6991 5.36448 11.6974C5.25711 12.1137 5.2 12.5502 5.2 13C5.2 15.8719 7.52812 18.2 10.4 18.2C13.2719 18.2 15.6 15.8719 15.6 13ZM16.9 26C20.4899 26 23.4 23.0899 23.4 19.5H22.1C22.1 22.3719 19.7719 24.7 16.9 24.7C14.0281 24.7 11.7 22.3719 11.7 19.5H10.4C10.4 23.0899 13.3101 26 16.9 26Z" fill="#373737"/>
</svg>  
