<svg width="145" height="106" viewBox="0 0 145 106" fill="none" xmlns="http://www.w3.org/2000/svg">
<rect width="145" height="106" rx="6" fill="#383838"/>
<line x1="19.5" y1="67" x2="19.5" y2="79" stroke="#BFBFBF"/>
<path d="M26.372 88.2168C26.3904 88.0776 26.4 87.9384 26.4 87.8C26.4 85.8968 24.6856 84.3696 22.7832 84.628C22.2288 83.6416 21.1728 83 20 83C18.8272 83 17.7712 83.6416 17.2168 84.628C15.3104 84.3696 13.6 85.8968 13.6 87.8C13.6 87.9384 13.6096 88.0776 13.628 88.2168C12.6416 88.772 12 89.828 12 91C12 92.172 12.6416 93.228 13.628 93.7832C13.6095 93.9214 13.6002 94.0606 13.6 94.2C13.6 96.1032 15.3104 97.6264 17.2168 97.372C17.7712 98.3584 18.8272 99 20 99C21.1728 99 22.2288 98.3584 22.7832 97.372C24.6856 97.6264 26.4 96.1032 26.4 94.2C26.4 94.0616 26.3904 93.9224 26.372 93.7832C27.3584 93.228 28 92.172 28 91C28 89.828 27.3584 88.772 26.372 88.2168ZM19.164 94.5328L16.2304 91.5616L17.3696 90.4384L19.1752 92.2672L22.6368 88.832L23.7632 89.968L19.164 94.5328V94.5328Z" fill="#3CC9E6"/>
<path d="M27 25.4V14.2C27 13.3176 26.3023 12.6 25.4444 12.6H23.8889V11H22.3333V12.6H17.6667V11H16.1111V12.6H14.5556C13.6977 12.6 13 13.3176 13 14.2V25.4C13 26.2824 13.6977 27 14.5556 27H25.4444C26.3023 27 27 26.2824 27 25.4ZM17.6667 23.8H16.1111V22.2H17.6667V23.8ZM17.6667 20.6H16.1111V19H17.6667V20.6ZM20.7778 23.8H19.2222V22.2H20.7778V23.8ZM20.7778 20.6H19.2222V19H20.7778V20.6ZM23.8889 23.8H22.3333V22.2H23.8889V23.8ZM23.8889 20.6H22.3333V19H23.8889V20.6ZM25.4444 16.6H14.5556V15H25.4444V16.6Z" fill="#516569"/>
<path d="M33.9091 17H32.4304V12.6364H33.9389C34.3722 12.6364 34.7443 12.7237 35.0554 12.8984C35.3679 13.0717 35.608 13.321 35.7756 13.6463C35.9432 13.9716 36.027 14.3608 36.027 14.8139C36.027 15.2685 35.9425 15.6591 35.7734 15.9858C35.6058 16.3125 35.3636 16.5632 35.0469 16.7379C34.7315 16.9126 34.3523 17 33.9091 17ZM33.2209 16.3161H33.8707C34.1747 16.3161 34.4283 16.2607 34.6314 16.1499C34.8345 16.0376 34.9872 15.8707 35.0895 15.6491C35.1918 15.4261 35.2429 15.1477 35.2429 14.8139C35.2429 14.4801 35.1918 14.2031 35.0895 13.983C34.9872 13.7614 34.8359 13.5959 34.6357 13.4865C34.4368 13.3757 34.1896 13.3203 33.8942 13.3203H33.2209V16.3161ZM37.6857 17.0661C37.4783 17.0661 37.2915 17.0291 37.1254 16.9553C36.9606 16.88 36.8299 16.7692 36.7333 16.6229C36.6381 16.4766 36.5906 16.2962 36.5906 16.0817C36.5906 15.897 36.6246 15.7443 36.6928 15.6236C36.761 15.5028 36.854 15.4062 36.9719 15.3338C37.0898 15.2614 37.2227 15.2067 37.3704 15.1697C37.5195 15.1314 37.6737 15.1037 37.8327 15.0866C38.0245 15.0668 38.18 15.049 38.2994 15.0334C38.4187 15.0163 38.5053 14.9908 38.5593 14.9567C38.6147 14.9212 38.6424 14.8665 38.6424 14.7926V14.7798C38.6424 14.6193 38.5948 14.495 38.4996 14.407C38.4045 14.3189 38.2674 14.2749 38.0884 14.2749C37.8995 14.2749 37.7496 14.3161 37.6388 14.3984C37.5295 14.4808 37.4556 14.5781 37.4173 14.6903L36.6971 14.5881C36.7539 14.3892 36.8477 14.223 36.9783 14.0895C37.109 13.9545 37.2688 13.8537 37.4577 13.7869C37.6467 13.7188 37.8555 13.6847 38.0842 13.6847C38.2418 13.6847 38.3988 13.7031 38.555 13.7401C38.7113 13.777 38.854 13.8381 38.9833 13.9233C39.1126 14.0071 39.2163 14.1214 39.2944 14.2663C39.3739 14.4112 39.4137 14.5923 39.4137 14.8097V17H38.6722V16.5504H38.6467C38.5998 16.6413 38.5337 16.7266 38.4485 16.8061C38.3647 16.8842 38.2589 16.9474 38.131 16.9957C38.0046 17.0426 37.8562 17.0661 37.6857 17.0661ZM37.886 16.4993C38.0408 16.4993 38.1751 16.4687 38.2887 16.4077C38.4023 16.3452 38.4897 16.2628 38.5508 16.1605C38.6133 16.0582 38.6445 15.9467 38.6445 15.826V15.4403C38.6204 15.4602 38.5792 15.4787 38.521 15.4957C38.4641 15.5128 38.4002 15.5277 38.3292 15.5405C38.2582 15.5533 38.1879 15.5646 38.1183 15.5746C38.0487 15.5845 37.9883 15.593 37.9371 15.6001C37.8221 15.6158 37.7191 15.6413 37.6282 15.6768C37.5373 15.7124 37.4656 15.7621 37.413 15.826C37.3604 15.8885 37.3342 15.9695 37.3342 16.0689C37.3342 16.2109 37.386 16.3182 37.4897 16.3906C37.5934 16.4631 37.7255 16.4993 37.886 16.4993ZM41.8235 13.7273V14.3239H39.9421V13.7273H41.8235ZM40.4066 12.9432H41.1779V16.0156C41.1779 16.1193 41.1935 16.1989 41.2248 16.2543C41.2575 16.3082 41.3001 16.3452 41.3526 16.3651C41.4052 16.3849 41.4634 16.3949 41.5273 16.3949C41.5756 16.3949 41.6197 16.3913 41.6594 16.3842C41.7006 16.3771 41.7319 16.3707 41.7532 16.3651L41.8832 16.968C41.842 16.9822 41.783 16.9979 41.7063 17.0149C41.631 17.032 41.5387 17.0419 41.4293 17.0447C41.2362 17.0504 41.0621 17.0213 40.9073 16.9574C40.7525 16.892 40.6296 16.7912 40.5387 16.6548C40.4492 16.5185 40.4052 16.348 40.4066 16.1435V12.9432ZM43.4103 17.0661C43.2029 17.0661 43.0162 17.0291 42.85 16.9553C42.6852 16.88 42.5545 16.7692 42.4579 16.6229C42.3627 16.4766 42.3152 16.2962 42.3152 16.0817C42.3152 15.897 42.3493 15.7443 42.4174 15.6236C42.4856 15.5028 42.5787 15.4062 42.6966 15.3338C42.8145 15.2614 42.9473 15.2067 43.095 15.1697C43.2441 15.1314 43.3983 15.1037 43.5574 15.0866C43.7491 15.0668 43.9047 15.049 44.024 15.0334C44.1433 15.0163 44.2299 14.9908 44.2839 14.9567C44.3393 14.9212 44.367 14.8665 44.367 14.7926V14.7798C44.367 14.6193 44.3194 14.495 44.2243 14.407C44.1291 14.3189 43.992 14.2749 43.813 14.2749C43.6241 14.2749 43.4743 14.3161 43.3635 14.3984C43.2541 14.4808 43.1802 14.5781 43.1419 14.6903L42.4217 14.5881C42.4785 14.3892 42.5723 14.223 42.7029 14.0895C42.8336 13.9545 42.9934 13.8537 43.1824 13.7869C43.3713 13.7188 43.5801 13.6847 43.8088 13.6847C43.9664 13.6847 44.1234 13.7031 44.2797 13.7401C44.4359 13.777 44.5787 13.8381 44.7079 13.9233C44.8372 14.0071 44.9409 14.1214 45.019 14.2663C45.0985 14.4112 45.1383 14.5923 45.1383 14.8097V17H44.3968V16.5504H44.3713C44.3244 16.6413 44.2583 16.7266 44.1731 16.8061C44.0893 16.8842 43.9835 16.9474 43.8556 16.9957C43.7292 17.0426 43.5808 17.0661 43.4103 17.0661ZM43.6106 16.4993C43.7654 16.4993 43.8997 16.4687 44.0133 16.4077C44.127 16.3452 44.2143 16.2628 44.2754 16.1605C44.3379 16.0582 44.3691 15.9467 44.3691 15.826V15.4403C44.345 15.4602 44.3038 15.4787 44.2456 15.4957C44.1887 15.5128 44.1248 15.5277 44.0538 15.5405C43.9828 15.5533 43.9125 15.5646 43.8429 15.5746C43.7733 15.5845 43.7129 15.593 43.6618 15.6001C43.5467 15.6158 43.4437 15.6413 43.3528 15.6768C43.2619 15.7124 43.1902 15.7621 43.1376 15.826C43.085 15.8885 43.0588 15.9695 43.0588 16.0689C43.0588 16.2109 43.1106 16.3182 43.2143 16.3906C43.318 16.4631 43.4501 16.4993 43.6106 16.4993ZM48.851 17.0639C48.5229 17.0639 48.2395 16.9957 48.0009 16.8594C47.7637 16.7216 47.5811 16.527 47.4533 16.2756C47.3255 16.0227 47.2615 15.7251 47.2615 15.3828C47.2615 15.0462 47.3255 14.7507 47.4533 14.4964C47.5826 14.2408 47.763 14.0419 47.9945 13.8999C48.226 13.7564 48.498 13.6847 48.8105 13.6847C49.0123 13.6847 49.2026 13.7173 49.3816 13.7827C49.562 13.8466 49.7211 13.946 49.8588 14.081C49.998 14.2159 50.1074 14.3878 50.187 14.5966C50.2665 14.804 50.3063 15.0511 50.3063 15.3381V15.5746H47.6238V15.0547H49.5669C49.5655 14.907 49.5336 14.7756 49.4711 14.6605C49.4086 14.544 49.3212 14.4524 49.209 14.3857C49.0982 14.3189 48.9689 14.2855 48.8212 14.2855C48.6635 14.2855 48.525 14.3239 48.4057 14.4006C48.2864 14.4759 48.1934 14.5753 48.1266 14.6989C48.0613 14.821 48.0279 14.9553 48.0265 15.1016V15.5554C48.0265 15.7457 48.0613 15.9091 48.1309 16.0455C48.2005 16.1804 48.2978 16.2841 48.4228 16.3565C48.5478 16.4276 48.6941 16.4631 48.8617 16.4631C48.9739 16.4631 49.0755 16.4474 49.1664 16.4162C49.2573 16.3835 49.3361 16.3359 49.4029 16.2734C49.4696 16.2109 49.5201 16.1335 49.5542 16.0412L50.2743 16.1222C50.2289 16.3125 50.1422 16.4787 50.0144 16.6207C49.888 16.7614 49.726 16.8707 49.5286 16.9489C49.3311 17.0256 49.1053 17.0639 48.851 17.0639ZM53.2184 15.0824V17H52.4471V12.6364H53.2013V14.2834H53.2397C53.3164 14.0987 53.435 13.9531 53.5955 13.8466C53.7575 13.7386 53.9634 13.6847 54.2134 13.6847C54.4407 13.6847 54.6388 13.7322 54.8079 13.8274C54.9769 13.9226 55.1076 14.0618 55.1999 14.245C55.2937 14.4283 55.3406 14.652 55.3406 14.9162V17H54.5692V15.0355C54.5692 14.8153 54.5124 14.6442 54.3988 14.522C54.2866 14.3984 54.1289 14.3366 53.9258 14.3366C53.7894 14.3366 53.6673 14.3665 53.5593 14.4261C53.4528 14.4844 53.369 14.5689 53.3079 14.6797C53.2482 14.7905 53.2184 14.9247 53.2184 15.0824ZM57.5543 17.0639C57.2347 17.0639 56.9577 16.9936 56.7234 16.853C56.489 16.7124 56.3072 16.5156 56.1779 16.2628C56.0501 16.0099 55.9862 15.7145 55.9862 15.3764C55.9862 15.0384 56.0501 14.7422 56.1779 14.4879C56.3072 14.2337 56.489 14.0362 56.7234 13.8956C56.9577 13.755 57.2347 13.6847 57.5543 13.6847C57.8739 13.6847 58.1509 13.755 58.3853 13.8956C58.6197 14.0362 58.8008 14.2337 58.9286 14.4879C59.0579 14.7422 59.1225 15.0384 59.1225 15.3764C59.1225 15.7145 59.0579 16.0099 58.9286 16.2628C58.8008 16.5156 58.6197 16.7124 58.3853 16.853C58.1509 16.9936 57.8739 17.0639 57.5543 17.0639ZM57.5586 16.446C57.7319 16.446 57.8768 16.3984 57.9933 16.3033C58.1097 16.2067 58.1964 16.0774 58.2532 15.9155C58.3114 15.7536 58.3406 15.5732 58.3406 15.3743C58.3406 15.174 58.3114 14.9929 58.2532 14.831C58.1964 14.6676 58.1097 14.5376 57.9933 14.4411C57.8768 14.3445 57.7319 14.2962 57.5586 14.2962C57.381 14.2962 57.2333 14.3445 57.1154 14.4411C56.9989 14.5376 56.9116 14.6676 56.8533 14.831C56.7965 14.9929 56.7681 15.174 56.7681 15.3743C56.7681 15.5732 56.7965 15.7536 56.8533 15.9155C56.9116 16.0774 56.9989 16.2067 57.1154 16.3033C57.2333 16.3984 57.381 16.446 57.5586 16.446ZM59.7772 17V13.7273H60.525V14.2727H60.5591C60.6188 14.0838 60.7211 13.9382 60.8659 13.8359C61.0123 13.7322 61.1792 13.6804 61.3667 13.6804C61.4093 13.6804 61.4569 13.6825 61.5094 13.6868C61.5634 13.6896 61.6081 13.6946 61.6436 13.7017V14.4112C61.611 14.3999 61.5591 14.3899 61.4881 14.3814C61.4185 14.3714 61.351 14.3665 61.2857 14.3665C61.1451 14.3665 61.0186 14.397 60.9064 14.4581C60.7956 14.5178 60.7083 14.6009 60.6444 14.7074C60.5804 14.8139 60.5485 14.9368 60.5485 15.076V17H59.7772ZM63.0392 17.0661C62.8319 17.0661 62.6451 17.0291 62.4789 16.9553C62.3141 16.88 62.1834 16.7692 62.0868 16.6229C61.9917 16.4766 61.9441 16.2962 61.9441 16.0817C61.9441 15.897 61.9782 15.7443 62.0463 15.6236C62.1145 15.5028 62.2076 15.4062 62.3255 15.3338C62.4434 15.2614 62.5762 15.2067 62.7239 15.1697C62.873 15.1314 63.0272 15.1037 63.1863 15.0866C63.378 15.0668 63.5336 15.049 63.6529 15.0334C63.7722 15.0163 63.8588 14.9908 63.9128 14.9567C63.9682 14.9212 63.9959 14.8665 63.9959 14.7926V14.7798C63.9959 14.6193 63.9483 14.495 63.8532 14.407C63.758 14.3189 63.6209 14.2749 63.4419 14.2749C63.253 14.2749 63.1032 14.3161 62.9924 14.3984C62.883 14.4808 62.8091 14.5781 62.7708 14.6903L62.0506 14.5881C62.1074 14.3892 62.2012 14.223 62.3319 14.0895C62.4625 13.9545 62.6223 13.8537 62.8113 13.7869C63.0002 13.7188 63.209 13.6847 63.4377 13.6847C63.5953 13.6847 63.7523 13.7031 63.9086 13.7401C64.0648 13.777 64.2076 13.8381 64.3368 13.9233C64.4661 14.0071 64.5698 14.1214 64.6479 14.2663C64.7275 14.4112 64.7672 14.5923 64.7672 14.8097V17H64.0257V16.5504H64.0002C63.9533 16.6413 63.8873 16.7266 63.802 16.8061C63.7182 16.8842 63.6124 16.9474 63.4846 16.9957C63.3581 17.0426 63.2097 17.0661 63.0392 17.0661ZM63.2395 16.4993C63.3944 16.4993 63.5286 16.4687 63.6422 16.4077C63.7559 16.3452 63.8432 16.2628 63.9043 16.1605C63.9668 16.0582 63.998 15.9467 63.998 15.826V15.4403C63.9739 15.4602 63.9327 15.4787 63.8745 15.4957C63.8176 15.5128 63.7537 15.5277 63.6827 15.5405C63.6117 15.5533 63.5414 15.5646 63.4718 15.5746C63.4022 15.5845 63.3418 15.593 63.2907 15.6001C63.1756 15.6158 63.0726 15.6413 62.9817 15.6768C62.8908 15.7124 62.8191 15.7621 62.7665 15.826C62.714 15.8885 62.6877 15.9695 62.6877 16.0689C62.6877 16.2109 62.7395 16.3182 62.8432 16.3906C62.9469 16.4631 63.079 16.4993 63.2395 16.4993ZM68.2456 17.0575C67.9885 17.0575 67.7583 16.9915 67.5552 16.8594C67.3521 16.7273 67.1916 16.5355 67.0737 16.2841C66.9558 16.0327 66.8968 15.7273 66.8968 15.3679C66.8968 15.0043 66.9565 14.6974 67.0758 14.4474C67.1966 14.196 67.3592 14.0064 67.5637 13.8786C67.7683 13.7493 67.9963 13.6847 68.2477 13.6847C68.4395 13.6847 68.5971 13.7173 68.7207 13.7827C68.8443 13.8466 68.9423 13.924 69.0147 14.0149C69.0872 14.1044 69.1433 14.1889 69.1831 14.2685H69.215V12.6364H69.9885V17H69.2299V16.4844H69.1831C69.1433 16.5639 69.0858 16.6484 69.0105 16.7379C68.9352 16.826 68.8358 16.9013 68.7122 16.9638C68.5886 17.0263 68.4331 17.0575 68.2456 17.0575ZM68.4608 16.4247C68.6241 16.4247 68.7633 16.3807 68.8784 16.2926C68.9934 16.2031 69.0808 16.0788 69.1404 15.9197C69.2001 15.7607 69.2299 15.5753 69.2299 15.3636C69.2299 15.152 69.2001 14.968 69.1404 14.8118C69.0822 14.6555 68.9956 14.5341 68.8805 14.4474C68.7669 14.3608 68.627 14.3175 68.4608 14.3175C68.2889 14.3175 68.1454 14.3622 68.0304 14.4517C67.9153 14.5412 67.8287 14.6648 67.7704 14.8224C67.7122 14.9801 67.6831 15.1605 67.6831 15.3636C67.6831 15.5682 67.7122 15.7507 67.7704 15.9112C67.8301 16.0703 67.9174 16.196 68.0325 16.2884C68.149 16.3793 68.2917 16.4247 68.4608 16.4247ZM72.2379 17.0639C71.9183 17.0639 71.6413 16.9936 71.407 16.853C71.1726 16.7124 70.9908 16.5156 70.8615 16.2628C70.7337 16.0099 70.6697 15.7145 70.6697 15.3764C70.6697 15.0384 70.7337 14.7422 70.8615 14.4879C70.9908 14.2337 71.1726 14.0362 71.407 13.8956C71.6413 13.755 71.9183 13.6847 72.2379 13.6847C72.5575 13.6847 72.8345 13.755 73.0689 13.8956C73.3033 14.0362 73.4844 14.2337 73.6122 14.4879C73.7415 14.7422 73.8061 15.0384 73.8061 15.3764C73.8061 15.7145 73.7415 16.0099 73.6122 16.2628C73.4844 16.5156 73.3033 16.7124 73.0689 16.853C72.8345 16.9936 72.5575 17.0639 72.2379 17.0639ZM72.2422 16.446C72.4155 16.446 72.5604 16.3984 72.6768 16.3033C72.7933 16.2067 72.88 16.0774 72.9368 15.9155C72.995 15.7536 73.0241 15.5732 73.0241 15.3743C73.0241 15.174 72.995 14.9929 72.9368 14.831C72.88 14.6676 72.7933 14.5376 72.6768 14.4411C72.5604 14.3445 72.4155 14.2962 72.2422 14.2962C72.0646 14.2962 71.9169 14.3445 71.799 14.4411C71.6825 14.5376 71.5952 14.6676 71.5369 14.831C71.4801 14.9929 71.4517 15.174 71.4517 15.3743C71.4517 15.5732 71.4801 15.7536 71.5369 15.9155C71.5952 16.0774 71.6825 16.2067 71.799 16.3033C71.9169 16.3984 72.0646 16.446 72.2422 16.446ZM76.8908 17.0661C76.6834 17.0661 76.4966 17.0291 76.3304 16.9553C76.1657 16.88 76.035 16.7692 75.9384 16.6229C75.8432 16.4766 75.7956 16.2962 75.7956 16.0817C75.7956 15.897 75.8297 15.7443 75.8979 15.6236C75.9661 15.5028 76.0591 15.4062 76.177 15.3338C76.2949 15.2614 76.4277 15.2067 76.5755 15.1697C76.7246 15.1314 76.8787 15.1037 77.0378 15.0866C77.2296 15.0668 77.3851 15.049 77.5044 15.0334C77.6238 15.0163 77.7104 14.9908 77.7644 14.9567C77.8198 14.9212 77.8475 14.8665 77.8475 14.7926V14.7798C77.8475 14.6193 77.7999 14.495 77.7047 14.407C77.6096 14.3189 77.4725 14.2749 77.2935 14.2749C77.1046 14.2749 76.9547 14.3161 76.8439 14.3984C76.7346 14.4808 76.6607 14.5781 76.6223 14.6903L75.9022 14.5881C75.959 14.3892 76.0527 14.223 76.1834 14.0895C76.3141 13.9545 76.4739 13.8537 76.6628 13.7869C76.8517 13.7188 77.0605 13.6847 77.2892 13.6847C77.4469 13.6847 77.6039 13.7031 77.7601 13.7401C77.9164 13.777 78.0591 13.8381 78.1884 13.9233C78.3176 14.0071 78.4213 14.1214 78.4995 14.2663C78.579 14.4112 78.6188 14.5923 78.6188 14.8097V17H77.8773V16.5504H77.8517C77.8049 16.6413 77.7388 16.7266 77.6536 16.8061C77.5698 16.8842 77.464 16.9474 77.3361 16.9957C77.2097 17.0426 77.0613 17.0661 76.8908 17.0661ZM77.0911 16.4993C77.2459 16.4993 77.3801 16.4687 77.4938 16.4077C77.6074 16.3452 77.6948 16.2628 77.7559 16.1605C77.8184 16.0582 77.8496 15.9467 77.8496 15.826V15.4403C77.8255 15.4602 77.7843 15.4787 77.726 15.4957C77.6692 15.5128 77.6053 15.5277 77.5343 15.5405C77.4632 15.5533 77.3929 15.5646 77.3233 15.5746C77.2537 15.5845 77.1934 15.593 77.1422 15.6001C77.0272 15.6158 76.9242 15.6413 76.8333 15.6768C76.7424 15.7124 76.6706 15.7621 76.6181 15.826C76.5655 15.8885 76.5392 15.9695 76.5392 16.0689C76.5392 16.2109 76.5911 16.3182 76.6948 16.3906C76.7985 16.4631 76.9306 16.4993 77.0911 16.4993ZM80.8176 18.2955C80.5407 18.2955 80.3027 18.2578 80.1039 18.1825C79.905 18.1087 79.7452 18.0092 79.6245 17.8842C79.5037 17.7592 79.4199 17.6207 79.373 17.4688L80.0676 17.3004C80.0989 17.3643 80.1444 17.4276 80.204 17.4901C80.2637 17.554 80.3439 17.6065 80.4448 17.6477C80.5471 17.6903 80.6756 17.7116 80.8304 17.7116C81.0492 17.7116 81.2303 17.6584 81.3738 17.5518C81.5172 17.4467 81.589 17.2734 81.589 17.032V16.4119H81.5506C81.5108 16.4915 81.4526 16.5732 81.3759 16.657C81.3006 16.7408 81.2005 16.8111 81.0755 16.8679C80.9519 16.9247 80.7963 16.9531 80.6088 16.9531C80.3574 16.9531 80.1294 16.8942 79.9249 16.7763C79.7218 16.657 79.5598 16.4794 79.4391 16.2436C79.3198 16.0064 79.2601 15.7095 79.2601 15.353C79.2601 14.9936 79.3198 14.6903 79.4391 14.4432C79.5598 14.1946 79.7225 14.0064 79.927 13.8786C80.1316 13.7493 80.3596 13.6847 80.611 13.6847C80.8027 13.6847 80.9604 13.7173 81.084 13.7827C81.209 13.8466 81.3084 13.924 81.3823 14.0149C81.4561 14.1044 81.5123 14.1889 81.5506 14.2685H81.5932V13.7273H82.3539V17.0533C82.3539 17.3331 82.2871 17.5646 82.1536 17.7479C82.0201 17.9311 81.8375 18.0682 81.606 18.1591C81.3745 18.25 81.1117 18.2955 80.8176 18.2955ZM80.824 16.348C80.9874 16.348 81.1266 16.3082 81.2417 16.2287C81.3567 16.1491 81.4441 16.0348 81.5037 15.8857C81.5634 15.7365 81.5932 15.5575 81.5932 15.3487C81.5932 15.1428 81.5634 14.9624 81.5037 14.8075C81.4455 14.6527 81.3588 14.5327 81.2438 14.4474C81.1301 14.3608 80.9902 14.3175 80.824 14.3175C80.6522 14.3175 80.5087 14.3622 80.3936 14.4517C80.2786 14.5412 80.1919 14.6641 80.1337 14.8203C80.0755 14.9751 80.0463 15.1513 80.0463 15.3487C80.0463 15.549 80.0755 15.7244 80.1337 15.875C80.1934 16.0241 80.2807 16.1406 80.3958 16.2244C80.5123 16.3068 80.655 16.348 80.824 16.348ZM84.5932 17.0639C84.2651 17.0639 83.9817 16.9957 83.7431 16.8594C83.5059 16.7216 83.3233 16.527 83.1955 16.2756C83.0676 16.0227 83.0037 15.7251 83.0037 15.3828C83.0037 15.0462 83.0676 14.7507 83.1955 14.4964C83.3248 14.2408 83.5051 14.0419 83.7367 13.8999C83.9682 13.7564 84.2402 13.6847 84.5527 13.6847C84.7544 13.6847 84.9448 13.7173 85.1238 13.7827C85.3042 13.8466 85.4632 13.946 85.601 14.081C85.7402 14.2159 85.8496 14.3878 85.9292 14.5966C86.0087 14.804 86.0485 15.0511 86.0485 15.3381V15.5746H83.3659V15.0547H85.3091C85.3077 14.907 85.2757 14.7756 85.2132 14.6605C85.1507 14.544 85.0634 14.4524 84.9512 14.3857C84.8404 14.3189 84.7111 14.2855 84.5634 14.2855C84.4057 14.2855 84.2672 14.3239 84.1479 14.4006C84.0286 14.4759 83.9355 14.5753 83.8688 14.6989C83.8034 14.821 83.7701 14.9553 83.7686 15.1016V15.5554C83.7686 15.7457 83.8034 15.9091 83.873 16.0455C83.9426 16.1804 84.04 16.2841 84.165 16.3565C84.29 16.4276 84.4363 16.4631 84.6039 16.4631C84.7161 16.4631 84.8176 16.4474 84.9086 16.4162C84.9995 16.3835 85.0783 16.3359 85.1451 16.2734C85.2118 16.2109 85.2623 16.1335 85.2963 16.0412L86.0165 16.1222C85.9711 16.3125 85.8844 16.4787 85.7566 16.6207C85.6301 16.7614 85.4682 16.8707 85.2708 16.9489C85.0733 17.0256 84.8475 17.0639 84.5932 17.0639ZM87.4723 15.0824V17H86.701V13.7273H87.4382V14.2834H87.4766C87.5518 14.1001 87.6719 13.9545 87.8366 13.8466C88.0028 13.7386 88.2081 13.6847 88.4524 13.6847C88.6783 13.6847 88.875 13.733 89.0426 13.8295C89.2116 13.9261 89.3423 14.0661 89.4347 14.2493C89.5284 14.4325 89.5746 14.6548 89.5732 14.9162V17H88.8018V15.0355C88.8018 14.8168 88.745 14.6456 88.6314 14.522C88.5192 14.3984 88.3636 14.3366 88.1648 14.3366C88.0298 14.3366 87.9098 14.3665 87.8047 14.4261C87.701 14.4844 87.6193 14.5689 87.5597 14.6797C87.5014 14.7905 87.4723 14.9247 87.4723 15.0824ZM91.5717 17.0575C91.3146 17.0575 91.0845 16.9915 90.8814 16.8594C90.6783 16.7273 90.5178 16.5355 90.3999 16.2841C90.282 16.0327 90.223 15.7273 90.223 15.3679C90.223 15.0043 90.2827 14.6974 90.402 14.4474C90.5227 14.196 90.6854 14.0064 90.8899 13.8786C91.0945 13.7493 91.3224 13.6847 91.5739 13.6847C91.7656 13.6847 91.9233 13.7173 92.0469 13.7827C92.1705 13.8466 92.2685 13.924 92.3409 14.0149C92.4134 14.1044 92.4695 14.1889 92.5092 14.2685H92.5412V12.6364H93.3146V17H92.5561V16.4844H92.5092C92.4695 16.5639 92.4119 16.6484 92.3366 16.7379C92.2614 16.826 92.1619 16.9013 92.0384 16.9638C91.9148 17.0263 91.7592 17.0575 91.5717 17.0575ZM91.7869 16.4247C91.9503 16.4247 92.0895 16.3807 92.2045 16.2926C92.3196 16.2031 92.407 16.0788 92.4666 15.9197C92.5263 15.7607 92.5561 15.5753 92.5561 15.3636C92.5561 15.152 92.5263 14.968 92.4666 14.8118C92.4084 14.6555 92.3217 14.5341 92.2067 14.4474C92.093 14.3608 91.9531 14.3175 91.7869 14.3175C91.6151 14.3175 91.4716 14.3622 91.3565 14.4517C91.2415 14.5412 91.1548 14.6648 91.0966 14.8224C91.0384 14.9801 91.0092 15.1605 91.0092 15.3636C91.0092 15.5682 91.0384 15.7507 91.0966 15.9112C91.1563 16.0703 91.2436 16.196 91.3587 16.2884C91.4751 16.3793 91.6179 16.4247 91.7869 16.4247ZM95.0783 17.0661C94.8709 17.0661 94.6841 17.0291 94.5179 16.9553C94.3532 16.88 94.2225 16.7692 94.1259 16.6229C94.0307 16.4766 93.9831 16.2962 93.9831 16.0817C93.9831 15.897 94.0172 15.7443 94.0854 15.6236C94.1536 15.5028 94.2466 15.4062 94.3645 15.3338C94.4824 15.2614 94.6152 15.2067 94.763 15.1697C94.9121 15.1314 95.0662 15.1037 95.2253 15.0866C95.4171 15.0668 95.5726 15.049 95.6919 15.0334C95.8113 15.0163 95.8979 14.9908 95.9519 14.9567C96.0073 14.9212 96.035 14.8665 96.035 14.7926V14.7798C96.035 14.6193 95.9874 14.495 95.8922 14.407C95.7971 14.3189 95.66 14.2749 95.481 14.2749C95.2921 14.2749 95.1422 14.3161 95.0314 14.3984C94.9221 14.4808 94.8482 14.5781 94.8098 14.6903L94.0897 14.5881C94.1465 14.3892 94.2402 14.223 94.3709 14.0895C94.5016 13.9545 94.6614 13.8537 94.8503 13.7869C95.0392 13.7188 95.248 13.6847 95.4767 13.6847C95.6344 13.6847 95.7914 13.7031 95.9476 13.7401C96.1039 13.777 96.2466 13.8381 96.3759 13.9233C96.5051 14.0071 96.6088 14.1214 96.687 14.2663C96.7665 14.4112 96.8063 14.5923 96.8063 14.8097V17H96.0648V16.5504H96.0392C95.9924 16.6413 95.9263 16.7266 95.8411 16.8061C95.7573 16.8842 95.6515 16.9474 95.5236 16.9957C95.3972 17.0426 95.2488 17.0661 95.0783 17.0661ZM95.2786 16.4993C95.4334 16.4993 95.5676 16.4687 95.6813 16.4077C95.7949 16.3452 95.8823 16.2628 95.9434 16.1605C96.0059 16.0582 96.0371 15.9467 96.0371 15.826V15.4403C96.013 15.4602 95.9718 15.4787 95.9135 15.4957C95.8567 15.5128 95.7928 15.5277 95.7218 15.5405C95.6507 15.5533 95.5804 15.5646 95.5108 15.5746C95.4412 15.5845 95.3809 15.593 95.3297 15.6001C95.2147 15.6158 95.1117 15.6413 95.0208 15.6768C94.9299 15.7124 94.8581 15.7621 94.8056 15.826C94.753 15.8885 94.7267 15.9695 94.7267 16.0689C94.7267 16.2109 94.7786 16.3182 94.8823 16.3906C94.986 16.4631 95.1181 16.4993 95.2786 16.4993ZM97.5819 17V13.7273H98.3191V14.2834H98.3574C98.4256 14.0959 98.5385 13.9496 98.6962 13.8445C98.8539 13.7379 99.0421 13.6847 99.2608 13.6847C99.4824 13.6847 99.6692 13.7386 99.8212 13.8466C99.9746 13.9531 100.083 14.0987 100.145 14.2834H100.179C100.252 14.1016 100.374 13.9567 100.546 13.8487C100.719 13.7393 100.924 13.6847 101.161 13.6847C101.463 13.6847 101.708 13.7798 101.899 13.9702C102.089 14.1605 102.184 14.4382 102.184 14.8033V17H101.411V14.9226C101.411 14.7195 101.357 14.571 101.249 14.4773C101.141 14.3821 101.009 14.3345 100.852 14.3345C100.666 14.3345 100.521 14.3928 100.416 14.5092C100.312 14.6243 100.26 14.7741 100.26 14.9588V17H99.5037V14.8906C99.5037 14.7216 99.4526 14.5866 99.3503 14.4858C99.2495 14.3849 99.1174 14.3345 98.954 14.3345C98.8432 14.3345 98.7424 14.3629 98.6515 14.4197C98.5605 14.4751 98.4881 14.554 98.4341 14.6562C98.3801 14.7571 98.3532 14.875 98.3532 15.0099V17H97.5819ZM104.415 17.0639C104.087 17.0639 103.804 16.9957 103.565 16.8594C103.328 16.7216 103.146 16.527 103.018 16.2756C102.89 16.0227 102.826 15.7251 102.826 15.3828C102.826 15.0462 102.89 14.7507 103.018 14.4964C103.147 14.2408 103.327 14.0419 103.559 13.8999C103.79 13.7564 104.062 13.6847 104.375 13.6847C104.577 13.6847 104.767 13.7173 104.946 13.7827C105.126 13.8466 105.286 13.946 105.423 14.081C105.563 14.2159 105.672 14.3878 105.751 14.5966C105.831 14.804 105.871 15.0511 105.871 15.3381V15.5746H103.188V15.0547H105.131C105.13 14.907 105.098 14.7756 105.036 14.6605C104.973 14.544 104.886 14.4524 104.773 14.3857C104.663 14.3189 104.533 14.2855 104.386 14.2855C104.228 14.2855 104.089 14.3239 103.97 14.4006C103.851 14.4759 103.758 14.5753 103.691 14.6989C103.626 14.821 103.592 14.9553 103.591 15.1016V15.5554C103.591 15.7457 103.626 15.9091 103.695 16.0455C103.765 16.1804 103.862 16.2841 103.987 16.3565C104.112 16.4276 104.259 16.4631 104.426 16.4631C104.538 16.4631 104.64 16.4474 104.731 16.4162C104.822 16.3835 104.901 16.3359 104.967 16.2734C105.034 16.2109 105.085 16.1335 105.119 16.0412L105.839 16.1222C105.793 16.3125 105.707 16.4787 105.579 16.6207C105.452 16.7614 105.29 16.8707 105.093 16.9489C104.896 17.0256 104.67 17.0639 104.415 17.0639ZM107.295 15.0824V17H106.523V13.7273H107.26V14.2834H107.299C107.374 14.1001 107.494 13.9545 107.659 13.8466C107.825 13.7386 108.03 13.6847 108.275 13.6847C108.501 13.6847 108.697 13.733 108.865 13.8295C109.034 13.9261 109.165 14.0661 109.257 14.2493C109.351 14.4325 109.397 14.6548 109.395 14.9162V17H108.624V15.0355C108.624 14.8168 108.567 14.6456 108.454 14.522C108.341 14.3984 108.186 14.3366 107.987 14.3366C107.852 14.3366 107.732 14.3665 107.627 14.4261C107.523 14.4844 107.442 14.5689 107.382 14.6797C107.324 14.7905 107.295 14.9247 107.295 15.0824ZM111.814 13.7273V14.3239H109.932V13.7273H111.814ZM110.397 12.9432H111.168V16.0156C111.168 16.1193 111.184 16.1989 111.215 16.2543C111.248 16.3082 111.29 16.3452 111.343 16.3651C111.395 16.3849 111.454 16.3949 111.518 16.3949C111.566 16.3949 111.61 16.3913 111.65 16.3842C111.691 16.3771 111.722 16.3707 111.743 16.3651L111.873 16.968C111.832 16.9822 111.773 16.9979 111.697 17.0149C111.621 17.032 111.529 17.0419 111.42 17.0447C111.226 17.0504 111.052 17.0213 110.898 16.9574C110.743 16.892 110.62 16.7912 110.529 16.6548C110.439 16.5185 110.395 16.348 110.397 16.1435V12.9432ZM113.851 17.0639C113.532 17.0639 113.255 16.9936 113.02 16.853C112.786 16.7124 112.604 16.5156 112.475 16.2628C112.347 16.0099 112.283 15.7145 112.283 15.3764C112.283 15.0384 112.347 14.7422 112.475 14.4879C112.604 14.2337 112.786 14.0362 113.02 13.8956C113.255 13.755 113.532 13.6847 113.851 13.6847C114.171 13.6847 114.448 13.755 114.682 13.8956C114.917 14.0362 115.098 14.2337 115.225 14.4879C115.355 14.7422 115.419 15.0384 115.419 15.3764C115.419 15.7145 115.355 16.0099 115.225 16.2628C115.098 16.5156 114.917 16.7124 114.682 16.853C114.448 16.9936 114.171 17.0639 113.851 17.0639ZM113.855 16.446C114.029 16.446 114.174 16.3984 114.29 16.3033C114.407 16.2067 114.493 16.0774 114.55 15.9155C114.608 15.7536 114.637 15.5732 114.637 15.3743C114.637 15.174 114.608 14.9929 114.55 14.831C114.493 14.6676 114.407 14.5376 114.29 14.4411C114.174 14.3445 114.029 14.2962 113.855 14.2962C113.678 14.2962 113.53 14.3445 113.412 14.4411C113.296 14.5376 113.208 14.6676 113.15 14.831C113.093 14.9929 113.065 15.174 113.065 15.3743C113.065 15.5732 113.093 15.7536 113.15 15.9155C113.208 16.0774 113.296 16.2067 113.412 16.3033C113.53 16.3984 113.678 16.446 113.855 16.446Z" fill="#B5B5C9"/>
<path d="M34.3342 26.0969C33.9248 26.0969 33.5735 25.9934 33.2802 25.7862C32.9885 25.5774 32.764 25.2766 32.6065 24.8839C32.4508 24.4895 32.3729 24.0147 32.3729 23.4595C32.3745 22.9044 32.4532 22.4321 32.609 22.0426C32.7665 21.6515 32.991 21.3532 33.2827 21.1477C33.576 20.9422 33.9265 20.8395 34.3342 20.8395C34.7418 20.8395 35.0923 20.9422 35.3857 21.1477C35.679 21.3532 35.9035 21.6515 36.0593 22.0426C36.2167 22.4337 36.2955 22.906 36.2955 23.4595C36.2955 24.0163 36.2167 24.492 36.0593 24.8864C35.9035 25.2791 35.679 25.5791 35.3857 25.7862C35.094 25.9934 34.7435 26.0969 34.3342 26.0969ZM34.3342 25.3189C34.6523 25.3189 34.9034 25.1623 35.0874 24.8491C35.273 24.5342 35.3658 24.071 35.3658 23.4595C35.3658 23.0552 35.3235 22.7154 35.239 22.4403C35.1545 22.1652 35.0352 21.9581 34.881 21.8189C34.7269 21.678 34.5446 21.6076 34.3342 21.6076C34.0176 21.6076 33.7674 21.765 33.5835 22.0799C33.3995 22.3931 33.3067 22.853 33.305 23.4595C33.3034 23.8655 33.344 24.2069 33.4268 24.4837C33.5114 24.7604 33.6307 24.9692 33.7848 25.1101C33.9389 25.2493 34.122 25.3189 34.3342 25.3189ZM39.192 20.9091V26H38.2698V21.8065H38.24L37.0493 22.5671V21.7219L38.3145 20.9091H39.192ZM42.5727 20.6705L40.9321 26.7656H40.1441L41.7847 20.6705H42.5727ZM45.0187 26.0969C44.6094 26.0969 44.2581 25.9934 43.9648 25.7862C43.6731 25.5774 43.4485 25.2766 43.2911 24.8839C43.1353 24.4895 43.0574 24.0147 43.0574 23.4595C43.0591 22.9044 43.1378 22.4321 43.2936 22.0426C43.451 21.6515 43.6756 21.3532 43.9672 21.1477C44.2606 20.9422 44.6111 20.8395 45.0187 20.8395C45.4264 20.8395 45.7769 20.9422 46.0702 21.1477C46.3635 21.3532 46.5881 21.6515 46.7439 22.0426C46.9013 22.4337 46.98 22.906 46.98 23.4595C46.98 24.0163 46.9013 24.492 46.7439 24.8864C46.5881 25.2791 46.3635 25.5791 46.0702 25.7862C45.7786 25.9934 45.4281 26.0969 45.0187 26.0969ZM45.0187 25.3189C45.3369 25.3189 45.588 25.1623 45.7719 24.8491C45.9575 24.5342 46.0503 24.071 46.0503 23.4595C46.0503 23.0552 46.0081 22.7154 45.9236 22.4403C45.839 22.1652 45.7197 21.9581 45.5656 21.8189C45.4115 21.678 45.2292 21.6076 45.0187 21.6076C44.7022 21.6076 44.452 21.765 44.268 22.0799C44.0841 22.3931 43.9913 22.853 43.9896 23.4595C43.988 23.8655 44.0286 24.2069 44.1114 24.4837C44.1959 24.7604 44.3153 24.9692 44.4694 25.1101C44.6235 25.2493 44.8066 25.3189 45.0187 25.3189ZM47.8059 26V25.3338L49.5733 23.6012C49.7424 23.4305 49.8832 23.2789 49.9959 23.1463C50.1086 23.0137 50.1931 22.8853 50.2495 22.761C50.3058 22.6367 50.334 22.5041 50.334 22.3633C50.334 22.2025 50.2975 22.065 50.2246 21.9506C50.1517 21.8346 50.0514 21.7451 49.9238 21.6822C49.7962 21.6192 49.6512 21.5877 49.4888 21.5877C49.3214 21.5877 49.1748 21.6225 49.0488 21.6921C48.9229 21.7601 48.8251 21.857 48.7555 21.983C48.6876 22.1089 48.6536 22.2589 48.6536 22.4329H47.7761C47.7761 22.1097 47.8498 21.8288 47.9973 21.5902C48.1448 21.3516 48.3478 21.1668 48.6064 21.0359C48.8665 20.9049 49.1648 20.8395 49.5012 20.8395C49.8426 20.8395 50.1426 20.9033 50.4011 21.0309C50.6596 21.1585 50.8601 21.3333 51.0027 21.5554C51.1468 21.7775 51.2189 22.031 51.2189 22.3161C51.2189 22.5066 51.1825 22.6939 51.1096 22.8778C51.0366 23.0618 50.9082 23.2656 50.7243 23.4893C50.542 23.7131 50.2859 23.984 49.9561 24.3022L49.0787 25.1946V25.2294H51.296V26H47.8059ZM54.2417 20.6705L52.601 26.7656H51.813L53.4537 20.6705H54.2417ZM54.8059 26V25.3338L56.5733 23.6012C56.7424 23.4305 56.8832 23.2789 56.9959 23.1463C57.1086 23.0137 57.1931 22.8853 57.2495 22.761C57.3058 22.6367 57.334 22.5041 57.334 22.3633C57.334 22.2025 57.2975 22.065 57.2246 21.9506C57.1517 21.8346 57.0514 21.7451 56.9238 21.6822C56.7962 21.6192 56.6512 21.5877 56.4888 21.5877C56.3214 21.5877 56.1748 21.6225 56.0488 21.6921C55.9229 21.7601 55.8251 21.857 55.7555 21.983C55.6876 22.1089 55.6536 22.2589 55.6536 22.4329H54.7761C54.7761 22.1097 54.8498 21.8288 54.9973 21.5902C55.1448 21.3516 55.3478 21.1668 55.6064 21.0359C55.8665 20.9049 56.1648 20.8395 56.5012 20.8395C56.8426 20.8395 57.1426 20.9033 57.4011 21.0309C57.6596 21.1585 57.8601 21.3333 58.0027 21.5554C58.1468 21.7775 58.2189 22.031 58.2189 22.3161C58.2189 22.5066 58.1825 22.6939 58.1096 22.8778C58.0366 23.0618 57.9082 23.2656 57.7243 23.4893C57.542 23.7131 57.2859 23.984 56.9561 24.3022L56.0787 25.1946V25.2294H58.296V26H54.8059ZM61.0353 26.0969C60.626 26.0969 60.2747 25.9934 59.9814 25.7862C59.6897 25.5774 59.4651 25.2766 59.3077 24.8839C59.1519 24.4895 59.074 24.0147 59.074 23.4595C59.0757 22.9044 59.1544 22.4321 59.3102 22.0426C59.4676 21.6515 59.6922 21.3532 59.9838 21.1477C60.2772 20.9422 60.6277 20.8395 61.0353 20.8395C61.443 20.8395 61.7935 20.9422 62.0868 21.1477C62.3801 21.3532 62.6047 21.6515 62.7605 22.0426C62.9179 22.4337 62.9966 22.906 62.9966 23.4595C62.9966 24.0163 62.9179 24.492 62.7605 24.8864C62.6047 25.2791 62.3801 25.5791 62.0868 25.7862C61.7952 25.9934 61.4447 26.0969 61.0353 26.0969ZM61.0353 25.3189C61.3535 25.3189 61.6046 25.1623 61.7885 24.8491C61.9741 24.5342 62.0669 24.071 62.0669 23.4595C62.0669 23.0552 62.0247 22.7154 61.9402 22.4403C61.8556 22.1652 61.7363 21.9581 61.5822 21.8189C61.4281 21.678 61.2458 21.6076 61.0353 21.6076C60.7188 21.6076 60.4686 21.765 60.2846 22.0799C60.1007 22.3931 60.0079 22.853 60.0062 23.4595C60.0046 23.8655 60.0452 24.2069 60.128 24.4837C60.2125 24.7604 60.3319 24.9692 60.486 25.1101C60.6401 25.2493 60.8232 25.3189 61.0353 25.3189ZM63.8225 26V25.3338L65.5899 23.6012C65.759 23.4305 65.8998 23.2789 66.0125 23.1463C66.1252 23.0137 66.2097 22.8853 66.2661 22.761C66.3224 22.6367 66.3506 22.5041 66.3506 22.3633C66.3506 22.2025 66.3141 22.065 66.2412 21.9506C66.1683 21.8346 66.068 21.7451 65.9404 21.6822C65.8128 21.6192 65.6678 21.5877 65.5054 21.5877C65.338 21.5877 65.1914 21.6225 65.0654 21.6921C64.9395 21.7601 64.8417 21.857 64.7721 21.983C64.7042 22.1089 64.6702 22.2589 64.6702 22.4329H63.7927C63.7927 22.1097 63.8664 21.8288 64.0139 21.5902C64.1614 21.3516 64.3644 21.1668 64.623 21.0359C64.8831 20.9049 65.1814 20.8395 65.5178 20.8395C65.8592 20.8395 66.1592 20.9033 66.4177 21.0309C66.6762 21.1585 66.8767 21.3333 67.0193 21.5554C67.1634 21.7775 67.2355 22.031 67.2355 22.3161C67.2355 22.5066 67.1991 22.6939 67.1262 22.8778C67.0532 23.0618 66.9248 23.2656 66.7409 23.4893C66.5586 23.7131 66.3025 23.984 65.9727 24.3022L65.0953 25.1946V25.2294H67.3126V26H63.8225ZM68.1702 26V25.3338L69.9376 23.6012C70.1066 23.4305 70.2475 23.2789 70.3602 23.1463C70.4729 23.0137 70.5574 22.8853 70.6137 22.761C70.6701 22.6367 70.6982 22.5041 70.6982 22.3633C70.6982 22.2025 70.6618 22.065 70.5889 21.9506C70.516 21.8346 70.4157 21.7451 70.2881 21.6822C70.1605 21.6192 70.0155 21.5877 69.8531 21.5877C69.6857 21.5877 69.539 21.6225 69.4131 21.6921C69.2871 21.7601 69.1894 21.857 69.1198 21.983C69.0518 22.1089 69.0178 22.2589 69.0178 22.4329H68.1404C68.1404 22.1097 68.2141 21.8288 68.3616 21.5902C68.5091 21.3516 68.7121 21.1668 68.9706 21.0359C69.2308 20.9049 69.5291 20.8395 69.8655 20.8395C70.2069 20.8395 70.5068 20.9033 70.7654 21.0309C71.0239 21.1585 71.2244 21.3333 71.3669 21.5554C71.5111 21.7775 71.5832 22.031 71.5832 22.3161C71.5832 22.5066 71.5467 22.6939 71.4738 22.8778C71.4009 23.0618 71.2725 23.2656 71.0885 23.4893C70.9062 23.7131 70.6502 23.984 70.3204 24.3022L69.4429 25.1946V25.2294H71.6602V26H68.1702Z" fill="#516569"/>
<path d="M36.0163 48.6364V53H35.3132L33.2571 50.0277H33.2209V53H32.4304V48.6364H33.1378L35.1918 51.6108H35.2301V48.6364H36.0163ZM38.9295 51.6236V49.7273H39.7008V53H38.9529V52.4183H38.9189C38.845 52.6016 38.7235 52.7514 38.5545 52.8679C38.3869 52.9844 38.1802 53.0426 37.9345 53.0426C37.72 53.0426 37.5304 52.995 37.3656 52.8999C37.2022 52.8033 37.0744 52.6634 36.9821 52.4801C36.8897 52.2955 36.8436 52.0724 36.8436 51.8111V49.7273H37.6149V51.6918C37.6149 51.8991 37.6717 52.0639 37.7853 52.1861C37.899 52.3082 38.0481 52.3693 38.2328 52.3693C38.3464 52.3693 38.4565 52.3416 38.563 52.2862C38.6696 52.2308 38.7569 52.1484 38.8251 52.0391C38.8947 51.9283 38.9295 51.7898 38.9295 51.6236ZM40.494 53V49.7273H41.2312V50.2834H41.2695C41.3377 50.0959 41.4506 49.9496 41.6083 49.8445C41.766 49.7379 41.9542 49.6847 42.1729 49.6847C42.3945 49.6847 42.5813 49.7386 42.7333 49.8466C42.8867 49.9531 42.9947 50.0987 43.0572 50.2834H43.0913C43.1637 50.1016 43.2859 49.9567 43.4577 49.8487C43.631 49.7393 43.8363 49.6847 44.0735 49.6847C44.3746 49.6847 44.6204 49.7798 44.8107 49.9702C45.0011 50.1605 45.0962 50.4382 45.0962 50.8033V53H44.3228V50.9226C44.3228 50.7195 44.2688 50.571 44.1609 50.4773C44.0529 50.3821 43.9208 50.3345 43.7646 50.3345C43.5785 50.3345 43.4329 50.3928 43.3278 50.5092C43.2241 50.6243 43.1722 50.7741 43.1722 50.9588V53H42.4158V50.8906C42.4158 50.7216 42.3647 50.5866 42.2624 50.4858C42.1616 50.3849 42.0295 50.3345 41.8661 50.3345C41.7553 50.3345 41.6545 50.3629 41.5636 50.4197C41.4727 50.4751 41.4002 50.554 41.3462 50.6562C41.2923 50.7571 41.2653 50.875 41.2653 51.0099V53H40.494ZM47.3276 53.0639C46.9995 53.0639 46.7161 52.9957 46.4775 52.8594C46.2402 52.7216 46.0577 52.527 45.9299 52.2756C45.802 52.0227 45.7381 51.7251 45.7381 51.3828C45.7381 51.0462 45.802 50.7507 45.9299 50.4964C46.0591 50.2408 46.2395 50.0419 46.4711 49.8999C46.7026 49.7564 46.9746 49.6847 47.2871 49.6847C47.4888 49.6847 47.6792 49.7173 47.8581 49.7827C48.0385 49.8466 48.1976 49.946 48.3354 50.081C48.4746 50.2159 48.584 50.3878 48.6635 50.5966C48.7431 50.804 48.7828 51.0511 48.7828 51.3381V51.5746H46.1003V51.0547H48.0435C48.0421 50.907 48.0101 50.7756 47.9476 50.6605C47.8851 50.544 47.7978 50.4524 47.6855 50.3857C47.5748 50.3189 47.4455 50.2855 47.2978 50.2855C47.1401 50.2855 47.0016 50.3239 46.8823 50.4006C46.763 50.4759 46.6699 50.5753 46.6032 50.6989C46.5378 50.821 46.5044 50.9553 46.503 51.1016V51.5554C46.503 51.7457 46.5378 51.9091 46.6074 52.0455C46.677 52.1804 46.7743 52.2841 46.8993 52.3565C47.0243 52.4276 47.1706 52.4631 47.3382 52.4631C47.4505 52.4631 47.552 52.4474 47.6429 52.4162C47.7338 52.3835 47.8127 52.3359 47.8794 52.2734C47.9462 52.2109 47.9966 52.1335 48.0307 52.0412L48.7509 52.1222C48.7054 52.3125 48.6188 52.4787 48.4909 52.6207C48.3645 52.7614 48.2026 52.8707 48.0051 52.9489C47.8077 53.0256 47.5819 53.0639 47.3276 53.0639ZM49.4354 53V49.7273H50.1832V50.2727H50.2173C50.277 50.0838 50.3793 49.9382 50.5241 49.8359C50.6705 49.7322 50.8374 49.6804 51.0249 49.6804C51.0675 49.6804 51.1151 49.6825 51.1676 49.6868C51.2216 49.6896 51.2663 49.6946 51.3018 49.7017V50.4112C51.2692 50.3999 51.2173 50.3899 51.1463 50.3814C51.0767 50.3714 51.0092 50.3665 50.9439 50.3665C50.8033 50.3665 50.6768 50.397 50.5646 50.4581C50.4538 50.5178 50.3665 50.6009 50.3026 50.7074C50.2386 50.8139 50.2067 50.9368 50.2067 51.076V53H49.4354ZM53.1071 53.0639C52.7875 53.0639 52.5105 52.9936 52.2761 52.853C52.0417 52.7124 51.8599 52.5156 51.7306 52.2628C51.6028 52.0099 51.5389 51.7145 51.5389 51.3764C51.5389 51.0384 51.6028 50.7422 51.7306 50.4879C51.8599 50.2337 52.0417 50.0362 52.2761 49.8956C52.5105 49.755 52.7875 49.6847 53.1071 49.6847C53.4267 49.6847 53.7037 49.755 53.938 49.8956C54.1724 50.0362 54.3535 50.2337 54.4814 50.4879C54.6106 50.7422 54.6752 51.0384 54.6752 51.3764C54.6752 51.7145 54.6106 52.0099 54.4814 52.2628C54.3535 52.5156 54.1724 52.7124 53.938 52.853C53.7037 52.9936 53.4267 53.0639 53.1071 53.0639ZM53.1113 52.446C53.2846 52.446 53.4295 52.3984 53.546 52.3033C53.6625 52.2067 53.7491 52.0774 53.8059 51.9155C53.8642 51.7536 53.8933 51.5732 53.8933 51.3743C53.8933 51.174 53.8642 50.9929 53.8059 50.831C53.7491 50.6676 53.6625 50.5376 53.546 50.4411C53.4295 50.3445 53.2846 50.2962 53.1113 50.2962C52.9338 50.2962 52.786 50.3445 52.6681 50.4411C52.5517 50.5376 52.4643 50.6676 52.4061 50.831C52.3493 50.9929 52.3208 51.174 52.3208 51.3743C52.3208 51.5732 52.3493 51.7536 52.4061 51.9155C52.4643 52.0774 52.5517 52.2067 52.6681 52.3033C52.786 52.3984 52.9338 52.446 53.1113 52.446ZM58.0327 53.0575C57.7756 53.0575 57.5455 52.9915 57.3423 52.8594C57.1392 52.7273 56.9787 52.5355 56.8608 52.2841C56.7429 52.0327 56.6839 51.7273 56.6839 51.3679C56.6839 51.0043 56.7436 50.6974 56.8629 50.4474C56.9837 50.196 57.1463 50.0064 57.3509 49.8786C57.5554 49.7493 57.7834 49.6847 58.0348 49.6847C58.2266 49.6847 58.3842 49.7173 58.5078 49.7827C58.6314 49.8466 58.7294 49.924 58.8018 50.0149C58.8743 50.1044 58.9304 50.1889 58.9702 50.2685H59.0021V48.6364H59.7756V53H59.017V52.4844H58.9702C58.9304 52.5639 58.8729 52.6484 58.7976 52.7379C58.7223 52.826 58.6229 52.9013 58.4993 52.9638C58.3757 53.0263 58.2202 53.0575 58.0327 53.0575ZM58.2479 52.4247C58.4112 52.4247 58.5504 52.3807 58.6655 52.2926C58.7805 52.2031 58.8679 52.0788 58.9276 51.9197C58.9872 51.7607 59.017 51.5753 59.017 51.3636C59.017 51.152 58.9872 50.968 58.9276 50.8118C58.8693 50.6555 58.7827 50.5341 58.6676 50.4474C58.554 50.3608 58.4141 50.3175 58.2479 50.3175C58.076 50.3175 57.9325 50.3622 57.8175 50.4517C57.7024 50.5412 57.6158 50.6648 57.5575 50.8224C57.4993 50.9801 57.4702 51.1605 57.4702 51.3636C57.4702 51.5682 57.4993 51.7507 57.5575 51.9112C57.6172 52.0703 57.7045 52.196 57.8196 52.2884C57.9361 52.3793 58.0788 52.4247 58.2479 52.4247ZM62.025 53.0639C61.7054 53.0639 61.4284 52.9936 61.1941 52.853C60.9597 52.7124 60.7779 52.5156 60.6486 52.2628C60.5208 52.0099 60.4569 51.7145 60.4569 51.3764C60.4569 51.0384 60.5208 50.7422 60.6486 50.4879C60.7779 50.2337 60.9597 50.0362 61.1941 49.8956C61.4284 49.755 61.7054 49.6847 62.025 49.6847C62.3446 49.6847 62.6216 49.755 62.856 49.8956C63.0904 50.0362 63.2715 50.2337 63.3993 50.4879C63.5286 50.7422 63.5932 51.0384 63.5932 51.3764C63.5932 51.7145 63.5286 52.0099 63.3993 52.2628C63.2715 52.5156 63.0904 52.7124 62.856 52.853C62.6216 52.9936 62.3446 53.0639 62.025 53.0639ZM62.0293 52.446C62.2026 52.446 62.3475 52.3984 62.464 52.3033C62.5804 52.2067 62.6671 52.0774 62.7239 51.9155C62.7821 51.7536 62.8113 51.5732 62.8113 51.3743C62.8113 51.174 62.7821 50.9929 62.7239 50.831C62.6671 50.6676 62.5804 50.5376 62.464 50.4411C62.3475 50.3445 62.2026 50.2962 62.0293 50.2962C61.8517 50.2962 61.704 50.3445 61.5861 50.4411C61.4696 50.5376 61.3823 50.6676 61.324 50.831C61.2672 50.9929 61.2388 51.174 61.2388 51.3743C61.2388 51.5732 61.2672 51.7536 61.324 51.9155C61.3823 52.0774 61.4696 52.2067 61.5861 52.3033C61.704 52.3984 61.8517 52.446 62.0293 52.446ZM66.6779 53.0661C66.4705 53.0661 66.2837 53.0291 66.1175 52.9553C65.9528 52.88 65.8221 52.7692 65.7255 52.6229C65.6303 52.4766 65.5827 52.2962 65.5827 52.0817C65.5827 51.897 65.6168 51.7443 65.685 51.6236C65.7532 51.5028 65.8462 51.4062 65.9641 51.3338C66.082 51.2614 66.2148 51.2067 66.3626 51.1697C66.5117 51.1314 66.6658 51.1037 66.8249 51.0866C67.0167 51.0668 67.1722 51.049 67.2915 51.0334C67.4109 51.0163 67.4975 50.9908 67.5515 50.9567C67.6069 50.9212 67.6346 50.8665 67.6346 50.7926V50.7798C67.6346 50.6193 67.587 50.495 67.4918 50.407C67.3967 50.3189 67.2596 50.2749 67.0806 50.2749C66.8917 50.2749 66.7418 50.3161 66.631 50.3984C66.5217 50.4808 66.4478 50.5781 66.4094 50.6903L65.6893 50.5881C65.7461 50.3892 65.8398 50.223 65.9705 50.0895C66.1012 49.9545 66.261 49.8537 66.4499 49.7869C66.6388 49.7188 66.8477 49.6847 67.0763 49.6847C67.234 49.6847 67.391 49.7031 67.5472 49.7401C67.7035 49.777 67.8462 49.8381 67.9755 49.9233C68.1048 50.0071 68.2085 50.1214 68.2866 50.2663C68.3661 50.4112 68.4059 50.5923 68.4059 50.8097V53H67.6644V52.5504H67.6388C67.592 52.6413 67.5259 52.7266 67.4407 52.8061C67.3569 52.8842 67.2511 52.9474 67.1232 52.9957C66.9968 53.0426 66.8484 53.0661 66.6779 53.0661ZM66.8782 52.4993C67.033 52.4993 67.1673 52.4687 67.2809 52.4077C67.3945 52.3452 67.4819 52.2628 67.543 52.1605C67.6055 52.0582 67.6367 51.9467 67.6367 51.826V51.4403C67.6126 51.4602 67.5714 51.4787 67.5131 51.4957C67.4563 51.5128 67.3924 51.5277 67.3214 51.5405C67.2504 51.5533 67.18 51.5646 67.1104 51.5746C67.0408 51.5845 66.9805 51.593 66.9293 51.6001C66.8143 51.6158 66.7113 51.6413 66.6204 51.6768C66.5295 51.7124 66.4577 51.7621 66.4052 51.826C66.3526 51.8885 66.3263 51.9695 66.3263 52.0689C66.3263 52.2109 66.3782 52.3182 66.4819 52.3906C66.5856 52.4631 66.7177 52.4993 66.8782 52.4993ZM70.8157 49.7273V50.3239H68.9343V49.7273H70.8157ZM69.3988 48.9432H70.1701V52.0156C70.1701 52.1193 70.1857 52.1989 70.217 52.2543C70.2496 52.3082 70.2923 52.3452 70.3448 52.3651C70.3974 52.3849 70.4556 52.3949 70.5195 52.3949C70.5678 52.3949 70.6119 52.3913 70.6516 52.3842C70.6928 52.3771 70.7241 52.3707 70.7454 52.3651L70.8754 52.968C70.8342 52.9822 70.7752 52.9979 70.6985 53.0149C70.6232 53.032 70.5309 53.0419 70.4215 53.0447C70.2283 53.0504 70.0543 53.0213 69.8995 52.9574C69.7447 52.892 69.6218 52.7912 69.5309 52.6548C69.4414 52.5185 69.3974 52.348 69.3988 52.1435V48.9432ZM72.8745 53.0639C72.5463 53.0639 72.263 52.9957 72.0243 52.8594C71.7871 52.7216 71.6046 52.527 71.4767 52.2756C71.3489 52.0227 71.285 51.7251 71.285 51.3828C71.285 51.0462 71.3489 50.7507 71.4767 50.4964C71.606 50.2408 71.7864 50.0419 72.0179 49.8999C72.2495 49.7564 72.5215 49.6847 72.834 49.6847C73.0357 49.6847 73.226 49.7173 73.405 49.7827C73.5854 49.8466 73.7445 49.946 73.8823 50.081C74.0215 50.2159 74.1309 50.3878 74.2104 50.5966C74.29 50.804 74.3297 51.0511 74.3297 51.3381V51.5746H71.6472V51.0547H73.5904C73.589 50.907 73.557 50.7756 73.4945 50.6605C73.432 50.544 73.3446 50.4524 73.2324 50.3857C73.1216 50.3189 72.9924 50.2855 72.8446 50.2855C72.687 50.2855 72.5485 50.3239 72.4292 50.4006C72.3098 50.4759 72.2168 50.5753 72.15 50.6989C72.0847 50.821 72.0513 50.9553 72.0499 51.1016V51.5554C72.0499 51.7457 72.0847 51.9091 72.1543 52.0455C72.2239 52.1804 72.3212 52.2841 72.4462 52.3565C72.5712 52.4276 72.7175 52.4631 72.8851 52.4631C72.9973 52.4631 73.0989 52.4474 73.1898 52.4162C73.2807 52.3835 73.3596 52.3359 73.4263 52.2734C73.4931 52.2109 73.5435 52.1335 73.5776 52.0412L74.2978 52.1222C74.2523 52.3125 74.1657 52.4787 74.0378 52.6207C73.9114 52.7614 73.7495 52.8707 73.552 52.9489C73.3546 53.0256 73.1287 53.0639 72.8745 53.0639ZM75.7536 51.0824V53H74.9822V49.7273H75.7195V50.2834H75.7578C75.8331 50.1001 75.9531 49.9545 76.1179 49.8466C76.2841 49.7386 76.4893 49.6847 76.7337 49.6847C76.9595 49.6847 77.1563 49.733 77.3239 49.8295C77.4929 49.9261 77.6236 50.0661 77.7159 50.2493C77.8097 50.4325 77.8558 50.6548 77.8544 50.9162V53H77.0831V51.0355C77.0831 50.8168 77.0263 50.6456 76.9126 50.522C76.8004 50.3984 76.6449 50.3366 76.446 50.3366C76.3111 50.3366 76.1911 50.3665 76.0859 50.4261C75.9822 50.4844 75.9006 50.5689 75.8409 50.6797C75.7827 50.7905 75.7536 50.9247 75.7536 51.0824ZM79.853 53.0575C79.5959 53.0575 79.3658 52.9915 79.1626 52.8594C78.9595 52.7273 78.799 52.5355 78.6811 52.2841C78.5632 52.0327 78.5043 51.7273 78.5043 51.3679C78.5043 51.0043 78.5639 50.6974 78.6832 50.4474C78.804 50.196 78.9666 50.0064 79.1712 49.8786C79.3757 49.7493 79.6037 49.6847 79.8551 49.6847C80.0469 49.6847 80.2045 49.7173 80.3281 49.7827C80.4517 49.8466 80.5497 49.924 80.6222 50.0149C80.6946 50.1044 80.7507 50.1889 80.7905 50.2685H80.8224V48.6364H81.5959V53H80.8374V52.4844H80.7905C80.7507 52.5639 80.6932 52.6484 80.6179 52.7379C80.5426 52.826 80.4432 52.9013 80.3196 52.9638C80.196 53.0263 80.0405 53.0575 79.853 53.0575ZM80.0682 52.4247C80.2315 52.4247 80.3707 52.3807 80.4858 52.2926C80.6009 52.2031 80.6882 52.0788 80.7479 51.9197C80.8075 51.7607 80.8374 51.5753 80.8374 51.3636C80.8374 51.152 80.8075 50.968 80.7479 50.8118C80.6896 50.6555 80.603 50.5341 80.4879 50.4474C80.3743 50.3608 80.2344 50.3175 80.0682 50.3175C79.8963 50.3175 79.7528 50.3622 79.6378 50.4517C79.5227 50.5412 79.4361 50.6648 79.3778 50.8224C79.3196 50.9801 79.2905 51.1605 79.2905 51.3636C79.2905 51.5682 79.3196 51.7507 79.3778 51.9112C79.4375 52.0703 79.5249 52.196 79.6399 52.2884C79.7564 52.3793 79.8991 52.4247 80.0682 52.4247ZM82.4178 53V49.7273H83.1891V53H82.4178ZM82.8056 49.2628C82.6834 49.2628 82.5783 49.2223 82.4902 49.1413C82.4022 49.0589 82.3581 48.9602 82.3581 48.8452C82.3581 48.7287 82.4022 48.63 82.4902 48.549C82.5783 48.4666 82.6834 48.4254 82.8056 48.4254C82.9292 48.4254 83.0343 48.4666 83.1209 48.549C83.209 48.63 83.253 48.7287 83.253 48.8452C83.253 48.9602 83.209 49.0589 83.1209 49.1413C83.0343 49.2223 82.9292 49.2628 82.8056 49.2628ZM83.9822 53V49.7273H84.7195V50.2834H84.7578C84.826 50.0959 84.9389 49.9496 85.0966 49.8445C85.2543 49.7379 85.4425 49.6847 85.6612 49.6847C85.8828 49.6847 86.0696 49.7386 86.2216 49.8466C86.375 49.9531 86.483 50.0987 86.5455 50.2834H86.5795C86.652 50.1016 86.7741 49.9567 86.946 49.8487C87.1193 49.7393 87.3246 49.6847 87.5618 49.6847C87.8629 49.6847 88.1087 49.7798 88.299 49.9702C88.4893 50.1605 88.5845 50.4382 88.5845 50.8033V53H87.8111V50.9226C87.8111 50.7195 87.7571 50.571 87.6491 50.4773C87.5412 50.3821 87.4091 50.3345 87.2528 50.3345C87.0668 50.3345 86.9212 50.3928 86.8161 50.5092C86.7124 50.6243 86.6605 50.7741 86.6605 50.9588V53H85.9041V50.8906C85.9041 50.7216 85.853 50.5866 85.7507 50.4858C85.6499 50.3849 85.5178 50.3345 85.3544 50.3345C85.2436 50.3345 85.1428 50.3629 85.0518 50.4197C84.9609 50.4751 84.8885 50.554 84.8345 50.6562C84.7805 50.7571 84.7536 50.875 84.7536 51.0099V53H83.9822ZM90.8159 53.0639C90.4877 53.0639 90.2044 52.9957 89.9657 52.8594C89.7285 52.7216 89.546 52.527 89.4181 52.2756C89.2903 52.0227 89.2264 51.7251 89.2264 51.3828C89.2264 51.0462 89.2903 50.7507 89.4181 50.4964C89.5474 50.2408 89.7278 50.0419 89.9593 49.8999C90.1909 49.7564 90.4629 49.6847 90.7754 49.6847C90.9771 49.6847 91.1674 49.7173 91.3464 49.7827C91.5268 49.8466 91.6859 49.946 91.8237 50.081C91.9629 50.2159 92.0723 50.3878 92.1518 50.5966C92.2314 50.804 92.2711 51.0511 92.2711 51.3381V51.5746H89.5886V51.0547H91.5318C91.5304 50.907 91.4984 50.7756 91.4359 50.6605C91.3734 50.544 91.286 50.4524 91.1738 50.3857C91.063 50.3189 90.9338 50.2855 90.786 50.2855C90.6284 50.2855 90.4899 50.3239 90.3706 50.4006C90.2512 50.4759 90.1582 50.5753 90.0914 50.6989C90.0261 50.821 89.9927 50.9553 89.9913 51.1016V51.5554C89.9913 51.7457 90.0261 51.9091 90.0957 52.0455C90.1653 52.1804 90.2626 52.2841 90.3876 52.3565C90.5126 52.4276 90.6589 52.4631 90.8265 52.4631C90.9387 52.4631 91.0403 52.4474 91.1312 52.4162C91.2221 52.3835 91.301 52.3359 91.3677 52.2734C91.4345 52.2109 91.4849 52.1335 91.519 52.0412L92.2392 52.1222C92.1937 52.3125 92.1071 52.4787 91.9792 52.6207C91.8528 52.7614 91.6909 52.8707 91.4934 52.9489C91.296 53.0256 91.0701 53.0639 90.8159 53.0639ZM93.695 51.0824V53H92.9237V49.7273H93.6609V50.2834H93.6992C93.7745 50.1001 93.8945 49.9545 94.0593 49.8466C94.2255 49.7386 94.4308 49.6847 94.6751 49.6847C94.9009 49.6847 95.0977 49.733 95.2653 49.8295C95.4343 49.9261 95.565 50.0661 95.6573 50.2493C95.7511 50.4325 95.7972 50.6548 95.7958 50.9162V53H95.0245V51.0355C95.0245 50.8168 94.9677 50.6456 94.854 50.522C94.7418 50.3984 94.5863 50.3366 94.3874 50.3366C94.2525 50.3366 94.1325 50.3665 94.0273 50.4261C93.9237 50.4844 93.842 50.5689 93.7823 50.6797C93.7241 50.7905 93.695 50.9247 93.695 51.0824ZM98.2141 49.7273V50.3239H96.3327V49.7273H98.2141ZM96.7972 48.9432H97.5685V52.0156C97.5685 52.1193 97.5842 52.1989 97.6154 52.2543C97.6481 52.3082 97.6907 52.3452 97.7433 52.3651C97.7958 52.3849 97.854 52.3949 97.918 52.3949C97.9663 52.3949 98.0103 52.3913 98.0501 52.3842C98.0913 52.3771 98.1225 52.3707 98.1438 52.3651L98.2738 52.968C98.2326 52.9822 98.1737 52.9979 98.0969 53.0149C98.0217 53.032 97.9293 53.0419 97.82 53.0447C97.6268 53.0504 97.4528 53.0213 97.2979 52.9574C97.1431 52.892 97.0202 52.7912 96.9293 52.6548C96.8398 52.5185 96.7958 52.348 96.7972 52.1435V48.9432ZM100.252 53.0639C99.932 53.0639 99.655 52.9936 99.4206 52.853C99.1863 52.7124 99.0044 52.5156 98.8752 52.2628C98.7473 52.0099 98.6834 51.7145 98.6834 51.3764C98.6834 51.0384 98.7473 50.7422 98.8752 50.4879C99.0044 50.2337 99.1863 50.0362 99.4206 49.8956C99.655 49.755 99.932 49.6847 100.252 49.6847C100.571 49.6847 100.848 49.755 101.083 49.8956C101.317 50.0362 101.498 50.2337 101.626 50.4879C101.755 50.7422 101.82 51.0384 101.82 51.3764C101.82 51.7145 101.755 52.0099 101.626 52.2628C101.498 52.5156 101.317 52.7124 101.083 52.853C100.848 52.9936 100.571 53.0639 100.252 53.0639ZM100.256 52.446C100.429 52.446 100.574 52.3984 100.691 52.3033C100.807 52.2067 100.894 52.0774 100.95 51.9155C101.009 51.7536 101.038 51.5732 101.038 51.3743C101.038 51.174 101.009 50.9929 100.95 50.831C100.894 50.6676 100.807 50.5376 100.691 50.4411C100.574 50.3445 100.429 50.2962 100.256 50.2962C100.078 50.2962 99.9306 50.3445 99.8127 50.4411C99.6962 50.5376 99.6088 50.6676 99.5506 50.831C99.4938 50.9929 99.4654 51.174 99.4654 51.3743C99.4654 51.5732 99.4938 51.7536 99.5506 51.9155C99.6088 52.0774 99.6962 52.2067 99.8127 52.3033C99.9306 52.3984 100.078 52.446 100.256 52.446Z" fill="#B5B5C9"/>
<path d="M34.3168 62.0696C34.0732 62.0679 33.8353 62.0257 33.6033 61.9428C33.3713 61.8583 33.1625 61.7216 32.9769 61.5327C32.7913 61.3421 32.6438 61.0894 32.5344 60.7745C32.4251 60.458 32.3712 60.0661 32.3729 59.5987C32.3729 59.1629 32.4193 58.7743 32.5121 58.4329C32.6049 58.0915 32.7383 57.8031 32.9123 57.5678C33.0863 57.3308 33.2959 57.1502 33.5412 57.0259C33.7881 56.9016 34.064 56.8395 34.369 56.8395C34.6888 56.8395 34.9722 56.9025 35.2191 57.0284C35.4677 57.1544 35.6682 57.3267 35.8207 57.5455C35.9731 57.7625 36.0676 58.0078 36.104 58.2812H35.1967C35.1503 58.0857 35.055 57.9299 34.9109 57.8139C34.7683 57.6963 34.5877 57.6374 34.369 57.6374C34.016 57.6374 33.7442 57.7907 33.5536 58.0973C33.3647 58.4039 33.2694 58.8248 33.2678 59.3601H33.3026C33.3838 59.2143 33.489 59.0891 33.6183 58.9847C33.7475 58.8803 33.8933 58.8 34.0558 58.7436C34.2198 58.6856 34.393 58.6566 34.5753 58.6566C34.8736 58.6566 35.1412 58.7279 35.3782 58.8704C35.6168 59.0129 35.8058 59.2093 35.945 59.4595C36.0842 59.7081 36.1529 59.9931 36.1513 60.3146C36.1529 60.6494 36.0767 60.9502 35.9226 61.217C35.7685 61.4821 35.5539 61.6909 35.2788 61.8434C35.0037 61.9959 34.683 62.0713 34.3168 62.0696ZM34.3118 61.3239C34.4924 61.3239 34.654 61.2799 34.7965 61.1921C34.939 61.1043 35.0517 60.9858 35.1346 60.8366C35.2174 60.6875 35.258 60.5201 35.2564 60.3345C35.258 60.1522 35.2183 59.9873 35.1371 59.8398C35.0575 59.6924 34.9473 59.5755 34.8065 59.4893C34.6656 59.4032 34.5049 59.3601 34.3242 59.3601C34.19 59.3601 34.0649 59.3858 33.9489 59.4371C33.8329 59.4885 33.7318 59.5598 33.6456 59.6509C33.5594 59.7404 33.4915 59.8448 33.4418 59.9641C33.3937 60.0818 33.3688 60.2077 33.3672 60.342C33.3688 60.5193 33.4103 60.6825 33.4915 60.8317C33.5727 60.9808 33.6845 61.1001 33.8271 61.1896C33.9696 61.2791 34.1312 61.3239 34.3118 61.3239ZM39.0621 56.9091V62H38.1399V57.8065H38.1101L36.9194 58.5671V57.7219L38.1847 56.9091H39.0621ZM42.4254 56.9091V62H41.5032V57.8065H41.4734L40.2827 58.5671V57.7219L41.5479 56.9091H42.4254ZM45.5824 62.0696C45.3388 62.0679 45.101 62.0257 44.869 61.9428C44.637 61.8583 44.4281 61.7216 44.2425 61.5327C44.0569 61.3421 43.9094 61.0894 43.8001 60.7745C43.6907 60.458 43.6368 60.0661 43.6385 59.5987C43.6385 59.1629 43.6849 58.7743 43.7777 58.4329C43.8705 58.0915 44.0039 57.8031 44.1779 57.5678C44.3519 57.3308 44.5616 57.1502 44.8068 57.0259C45.0537 56.9016 45.3297 56.8395 45.6346 56.8395C45.9544 56.8395 46.2378 56.9025 46.4847 57.0284C46.7333 57.1544 46.9338 57.3267 47.0863 57.5455C47.2388 57.7625 47.3332 58.0078 47.3697 58.2812H46.4624C46.416 58.0857 46.3207 57.9299 46.1765 57.8139C46.034 57.6963 45.8533 57.6374 45.6346 57.6374C45.2816 57.6374 45.0098 57.7907 44.8192 58.0973C44.6303 58.4039 44.535 58.8248 44.5334 59.3601H44.5682C44.6494 59.2143 44.7546 59.0891 44.8839 58.9847C45.0131 58.8803 45.159 58.8 45.3214 58.7436C45.4854 58.6856 45.6586 58.6566 45.8409 58.6566C46.1392 58.6566 46.4068 58.7279 46.6438 58.8704C46.8825 59.0129 47.0714 59.2093 47.2106 59.4595C47.3498 59.7081 47.4186 59.9931 47.4169 60.3146C47.4186 60.6494 47.3423 60.9502 47.1882 61.217C47.0341 61.4821 46.8195 61.6909 46.5444 61.8434C46.2693 61.9959 45.9486 62.0713 45.5824 62.0696ZM45.5774 61.3239C45.758 61.3239 45.9196 61.2799 46.0621 61.1921C46.2047 61.1043 46.3174 60.9858 46.4002 60.8366C46.4831 60.6875 46.5237 60.5201 46.522 60.3345C46.5237 60.1522 46.4839 59.9873 46.4027 59.8398C46.3232 59.6924 46.2129 59.5755 46.0721 59.4893C45.9312 59.4032 45.7705 59.3601 45.5898 59.3601C45.4556 59.3601 45.3305 59.3858 45.2145 59.4371C45.0985 59.4885 44.9974 59.5598 44.9112 59.6509C44.825 59.7404 44.7571 59.8448 44.7074 59.9641C44.6593 60.0818 44.6345 60.2077 44.6328 60.342C44.6345 60.5193 44.6759 60.6825 44.7571 60.8317C44.8383 60.9808 44.9502 61.1001 45.0927 61.1896C45.2352 61.2791 45.3968 61.3239 45.5774 61.3239ZM50.1214 62.0696C49.8778 62.0679 49.64 62.0257 49.408 61.9428C49.176 61.8583 48.9672 61.7216 48.7816 61.5327C48.596 61.3421 48.4485 61.0894 48.3391 60.7745C48.2298 60.458 48.1759 60.0661 48.1776 59.5987C48.1776 59.1629 48.224 58.7743 48.3168 58.4329C48.4096 58.0915 48.543 57.8031 48.717 57.5678C48.891 57.3308 49.1006 57.1502 49.3459 57.0259C49.5928 56.9016 49.8687 56.8395 50.1737 56.8395C50.4935 56.8395 50.7769 56.9025 51.0238 57.0284C51.2724 57.1544 51.4729 57.3267 51.6254 57.5455C51.7778 57.7625 51.8723 58.0078 51.9087 58.2812H51.0014C50.955 58.0857 50.8597 57.9299 50.7156 57.8139C50.573 57.6963 50.3924 57.6374 50.1737 57.6374C49.8207 57.6374 49.5489 57.7907 49.3583 58.0973C49.1694 58.4039 49.0741 58.8248 49.0724 59.3601H49.1072C49.1884 59.2143 49.2937 59.0891 49.4229 58.9847C49.5522 58.8803 49.698 58.8 49.8604 58.7436C50.0245 58.6856 50.1977 58.6566 50.38 58.6566C50.6783 58.6566 50.9459 58.7279 51.1829 58.8704C51.4215 59.0129 51.6104 59.2093 51.7496 59.4595C51.8888 59.7081 51.9576 59.9931 51.956 60.3146C51.9576 60.6494 51.8814 60.9502 51.7273 61.217C51.5732 61.4821 51.3585 61.6909 51.0835 61.8434C50.8084 61.9959 50.4877 62.0713 50.1214 62.0696ZM50.1165 61.3239C50.2971 61.3239 50.4587 61.2799 50.6012 61.1921C50.7437 61.1043 50.8564 60.9858 50.9393 60.8366C51.0221 60.6875 51.0627 60.5201 51.0611 60.3345C51.0627 60.1522 51.023 59.9873 50.9418 59.8398C50.8622 59.6924 50.752 59.5755 50.6112 59.4893C50.4703 59.4032 50.3095 59.3601 50.1289 59.3601C49.9947 59.3601 49.8696 59.3858 49.7536 59.4371C49.6375 59.4885 49.5365 59.5598 49.4503 59.6509C49.3641 59.7404 49.2962 59.8448 49.2464 59.9641C49.1984 60.0818 49.1735 60.2077 49.1719 60.342C49.1735 60.5193 49.215 60.6825 49.2962 60.8317C49.3774 60.9808 49.4892 61.1001 49.6317 61.1896C49.7743 61.2791 49.9358 61.3239 50.1165 61.3239ZM54.6605 62.0696C54.4169 62.0679 54.1791 62.0257 53.9471 61.9428C53.7151 61.8583 53.5063 61.7216 53.3207 61.5327C53.1351 61.3421 52.9876 61.0894 52.8782 60.7745C52.7688 60.458 52.715 60.0661 52.7166 59.5987C52.7166 59.1629 52.763 58.7743 52.8558 58.4329C52.9486 58.0915 53.082 57.8031 53.256 57.5678C53.43 57.3308 53.6397 57.1502 53.8849 57.0259C54.1319 56.9016 54.4078 56.8395 54.7127 56.8395C55.0326 56.8395 55.3159 56.9025 55.5629 57.0284C55.8114 57.1544 56.012 57.3267 56.1644 57.5455C56.3169 57.7625 56.4113 58.0078 56.4478 58.2812H55.5405C55.4941 58.0857 55.3988 57.9299 55.2546 57.8139C55.1121 57.6963 54.9315 57.6374 54.7127 57.6374C54.3597 57.6374 54.0879 57.7907 53.8974 58.0973C53.7085 58.4039 53.6132 58.8248 53.6115 59.3601H53.6463C53.7275 59.2143 53.8327 59.0891 53.962 58.9847C54.0913 58.8803 54.2371 58.8 54.3995 58.7436C54.5636 58.6856 54.7367 58.6566 54.919 58.6566C55.2173 58.6566 55.485 58.7279 55.7219 58.8704C55.9606 59.0129 56.1495 59.2093 56.2887 59.4595C56.4279 59.7081 56.4967 59.9931 56.495 60.3146C56.4967 60.6494 56.4205 60.9502 56.2663 61.217C56.1122 61.4821 55.8976 61.6909 55.6225 61.8434C55.3474 61.9959 55.0268 62.0713 54.6605 62.0696ZM54.6555 61.3239C54.8362 61.3239 54.9978 61.2799 55.1403 61.1921C55.2828 61.1043 55.3955 60.9858 55.4783 60.8366C55.5612 60.6875 55.6018 60.5201 55.6001 60.3345C55.6018 60.1522 55.562 59.9873 55.4808 59.8398C55.4013 59.6924 55.2911 59.5755 55.1502 59.4893C55.0094 59.4032 54.8486 59.3601 54.668 59.3601C54.5337 59.3601 54.4086 59.3858 54.2926 59.4371C54.1766 59.4885 54.0755 59.5598 53.9893 59.6509C53.9032 59.7404 53.8352 59.8448 53.7855 59.9641C53.7375 60.0818 53.7126 60.2077 53.7109 60.342C53.7126 60.5193 53.754 60.6825 53.8352 60.8317C53.9164 60.9808 54.0283 61.1001 54.1708 61.1896C54.3133 61.2791 54.4749 61.3239 54.6555 61.3239ZM59.1623 62.0696C58.8043 62.0696 58.4862 62.0083 58.2077 61.8857C57.931 61.763 57.7122 61.5923 57.5515 61.3736C57.3907 61.1548 57.3054 60.9021 57.2955 60.6154H58.2301C58.2384 60.753 58.284 60.8731 58.3668 60.9759C58.4497 61.0769 58.5599 61.1557 58.6974 61.212C58.835 61.2683 58.9891 61.2965 59.1598 61.2965C59.3421 61.2965 59.5037 61.265 59.6445 61.2021C59.7854 61.1374 59.8956 61.0479 59.9751 60.9336C60.0547 60.8192 60.0936 60.6875 60.092 60.5384C60.0936 60.3842 60.0539 60.2483 59.9727 60.1307C59.8915 60.013 59.7738 59.921 59.6197 59.8548C59.4672 59.7885 59.2833 59.7553 59.0678 59.7553H58.6179V59.0444H59.0678C59.2451 59.0444 59.4001 59.0137 59.5327 58.9524C59.6669 58.8911 59.7721 58.8049 59.8484 58.6939C59.9246 58.5812 59.9619 58.4511 59.9602 58.3036C59.9619 58.1594 59.9296 58.0343 59.8633 57.9283C59.7987 57.8205 59.7067 57.7369 59.5874 57.6772C59.4697 57.6175 59.3313 57.5877 59.1722 57.5877C59.0165 57.5877 58.8723 57.6159 58.7397 57.6722C58.6071 57.7286 58.5002 57.8089 58.419 57.9134C58.3378 58.0161 58.2947 58.1387 58.2898 58.2812H57.4023C57.409 57.9962 57.491 57.746 57.6484 57.5305C57.8075 57.3134 58.0196 57.1444 58.2848 57.0234C58.55 56.9008 58.8474 56.8395 59.1772 56.8395C59.5169 56.8395 59.8119 56.9033 60.0621 57.0309C60.314 57.1568 60.5088 57.3267 60.6463 57.5405C60.7839 57.7543 60.8526 57.9904 60.8526 58.2489C60.8543 58.5356 60.7698 58.7759 60.5991 58.9698C60.43 59.1637 60.208 59.2905 59.9329 59.3501V59.3899C60.2908 59.4396 60.5651 59.5722 60.7557 59.7876C60.9479 60.0014 61.0432 60.2674 61.0415 60.5856C61.0415 60.8706 60.9603 61.1258 60.7979 61.3512C60.6372 61.5749 60.4151 61.7506 60.1317 61.8782C59.85 62.0058 59.5269 62.0696 59.1623 62.0696ZM61.8948 62V61.3338L63.6622 59.6012C63.8312 59.4305 63.9721 59.2789 64.0848 59.1463C64.1975 59.0137 64.282 58.8853 64.3383 58.761C64.3947 58.6367 64.4229 58.5041 64.4229 58.3633C64.4229 58.2025 64.3864 58.065 64.3135 57.9506C64.2406 57.8346 64.1403 57.7451 64.0127 57.6822C63.8851 57.6192 63.7401 57.5877 63.5777 57.5877C63.4103 57.5877 63.2636 57.6225 63.1377 57.6921C63.0117 57.7601 62.914 57.857 62.8444 57.983C62.7764 58.1089 62.7425 58.2589 62.7425 58.4329H61.865C61.865 58.1097 61.9387 57.8288 62.0862 57.5902C62.2337 57.3516 62.4367 57.1668 62.6952 57.0359C62.9554 56.9049 63.2537 56.8395 63.5901 56.8395C63.9315 56.8395 64.2314 56.9033 64.49 57.0309C64.7485 57.1585 64.949 57.3333 65.0915 57.5554C65.2357 57.7775 65.3078 58.031 65.3078 58.3161C65.3078 58.5066 65.2713 58.6939 65.1984 58.8778C65.1255 59.0618 64.9971 59.2656 64.8131 59.4893C64.6308 59.7131 64.3748 59.984 64.045 60.3022L63.1675 61.1946V61.2294H65.3849V62H61.8948ZM68.0099 56.8395C68.2535 56.8411 68.4904 56.8842 68.7208 56.9688C68.9528 57.0516 69.1616 57.1875 69.3472 57.3764C69.5328 57.5637 69.6803 57.8147 69.7897 58.1296C69.8991 58.4445 69.9537 58.8339 69.9537 59.2979C69.9554 59.7354 69.909 60.1265 69.8145 60.4712C69.7217 60.8143 69.5883 61.1043 69.4143 61.3413C69.2403 61.5782 69.0307 61.7589 68.7854 61.8832C68.5402 62.0075 68.2642 62.0696 67.9577 62.0696C67.6362 62.0696 67.3511 62.0066 67.1025 61.8807C66.8556 61.7547 66.6559 61.5824 66.5035 61.3636C66.351 61.1449 66.2574 60.8946 66.2226 60.6129H67.1299C67.1763 60.8151 67.2707 60.9759 67.4133 61.0952C67.5574 61.2128 67.7389 61.2717 67.9577 61.2717C68.3106 61.2717 68.5824 61.1184 68.773 60.8118C68.9636 60.5052 69.0589 60.0793 69.0589 59.5341H69.0241C68.9429 59.6799 68.8376 59.8059 68.7084 59.9119C68.5791 60.0163 68.4324 60.0967 68.2684 60.1531C68.106 60.2094 67.9336 60.2376 67.7513 60.2376C67.453 60.2376 67.1846 60.1663 66.9459 60.0238C66.709 59.8813 66.5209 59.6857 66.3817 59.4371C66.2441 59.1886 66.1745 58.9044 66.1729 58.5845C66.1729 58.2531 66.2491 57.9556 66.4015 57.6921C66.5557 57.427 66.7703 57.2182 67.0454 57.0657C67.3205 56.9116 67.642 56.8362 68.0099 56.8395ZM68.0123 57.5852C67.8334 57.5852 67.6718 57.6291 67.5276 57.717C67.3851 57.8031 67.2724 57.9208 67.1895 58.07C67.1083 58.2174 67.0677 58.3823 67.0677 58.5646C67.0694 58.7453 67.11 58.9093 67.1895 59.0568C67.2707 59.2043 67.3809 59.3211 67.5202 59.4073C67.661 59.4935 67.8218 59.5366 68.0024 59.5366C68.1366 59.5366 68.2617 59.5109 68.3778 59.4595C68.4938 59.4081 68.5948 59.3369 68.681 59.2457C68.7689 59.1529 68.8368 59.0477 68.8849 58.93C68.9346 58.8124 68.9586 58.6881 68.9569 58.5572C68.9569 58.3832 68.9155 58.2224 68.8327 58.0749C68.7515 57.9274 68.6396 57.8089 68.4971 57.7195C68.3562 57.63 68.1946 57.5852 68.0123 57.5852ZM72.6633 62.0969C72.2539 62.0969 71.9026 61.9934 71.6093 61.7862C71.3176 61.5774 71.0931 61.2766 70.9356 60.8839C70.7799 60.4895 70.702 60.0147 70.702 59.4595C70.7036 58.9044 70.7823 58.4321 70.9381 58.0426C71.0956 57.6515 71.3201 57.3532 71.6118 57.1477C71.9051 56.9422 72.2556 56.8395 72.6633 56.8395C73.0709 56.8395 73.4214 56.9422 73.7148 57.1477C74.0081 57.3532 74.2326 57.6515 74.3884 58.0426C74.5458 58.4337 74.6246 58.906 74.6246 59.4595C74.6246 60.0163 74.5458 60.492 74.3884 60.8864C74.2326 61.2791 74.0081 61.5791 73.7148 61.7862C73.4231 61.9934 73.0726 62.0969 72.6633 62.0969ZM72.6633 61.3189C72.9814 61.3189 73.2325 61.1623 73.4165 60.8491C73.6021 60.5342 73.6949 60.071 73.6949 59.4595C73.6949 59.0552 73.6526 58.7154 73.5681 58.4403C73.4836 58.1652 73.3643 57.9581 73.2101 57.8189C73.056 57.678 72.8737 57.6076 72.6633 57.6076C72.3467 57.6076 72.0965 57.765 71.9126 58.0799C71.7286 58.3931 71.6358 58.853 71.6341 59.4595C71.6325 59.8655 71.6731 60.2069 71.7559 60.4837C71.8405 60.7604 71.9598 60.9692 72.1139 61.1101C72.268 61.2493 72.4511 61.3189 72.6633 61.3189ZM77.3322 62.0969C76.9229 62.0969 76.5716 61.9934 76.2782 61.7862C75.9866 61.5774 75.762 61.2766 75.6046 60.8839C75.4488 60.4895 75.3709 60.0147 75.3709 59.4595C75.3726 58.9044 75.4513 58.4321 75.6071 58.0426C75.7645 57.6515 75.9891 57.3532 76.2807 57.1477C76.574 56.9422 76.9245 56.8395 77.3322 56.8395C77.7399 56.8395 78.0904 56.9422 78.3837 57.1477C78.677 57.3532 78.9016 57.6515 79.0574 58.0426C79.2148 58.4337 79.2935 58.906 79.2935 59.4595C79.2935 60.0163 79.2148 60.492 79.0574 60.8864C78.9016 61.2791 78.677 61.5791 78.3837 61.7862C78.092 61.9934 77.7415 62.0969 77.3322 62.0969ZM77.3322 61.3189C77.6504 61.3189 77.9015 61.1623 78.0854 60.8491C78.271 60.5342 78.3638 60.071 78.3638 59.4595C78.3638 59.0552 78.3216 58.7154 78.237 58.4403C78.1525 58.1652 78.0332 57.9581 77.8791 57.8189C77.725 57.678 77.5427 57.6076 77.3322 57.6076C77.0157 57.6076 76.7654 57.765 76.5815 58.0799C76.3975 58.3931 76.3047 58.853 76.3031 59.4595C76.3014 59.8655 76.342 60.2069 76.4249 60.4837C76.5094 60.7604 76.6287 60.9692 76.7828 61.1101C76.937 61.2493 77.1201 61.3189 77.3322 61.3189ZM81.9838 62.0696C81.7401 62.0679 81.5023 62.0257 81.2703 61.9428C81.0383 61.8583 80.8295 61.7216 80.6439 61.5327C80.4583 61.3421 80.3108 61.0894 80.2014 60.7745C80.0921 60.458 80.0382 60.0661 80.0399 59.5987C80.0399 59.1629 80.0863 58.7743 80.1791 58.4329C80.2719 58.0915 80.4053 57.8031 80.5793 57.5678C80.7533 57.3308 80.9629 57.1502 81.2082 57.0259C81.4551 56.9016 81.731 56.8395 82.036 56.8395C82.3558 56.8395 82.6392 56.9025 82.8861 57.0284C83.1347 57.1544 83.3352 57.3267 83.4877 57.5455C83.6401 57.7625 83.7346 58.0078 83.771 58.2812H82.8637C82.8173 58.0857 82.722 57.9299 82.5779 57.8139C82.4353 57.6963 82.2547 57.6374 82.036 57.6374C81.683 57.6374 81.4112 57.7907 81.2206 58.0973C81.0317 58.4039 80.9364 58.8248 80.9347 59.3601H80.9695C81.0508 59.2143 81.156 59.0891 81.2852 58.9847C81.4145 58.8803 81.5603 58.8 81.7227 58.7436C81.8868 58.6856 82.06 58.6566 82.2423 58.6566C82.5406 58.6566 82.8082 58.7279 83.0452 58.8704C83.2838 59.0129 83.4727 59.2093 83.6119 59.4595C83.7512 59.7081 83.8199 59.9931 83.8183 60.3146C83.8199 60.6494 83.7437 60.9502 83.5896 61.217C83.4355 61.4821 83.2209 61.6909 82.9458 61.8434C82.6707 61.9959 82.35 62.0713 81.9838 62.0696ZM81.9788 61.3239C82.1594 61.3239 82.321 61.2799 82.4635 61.1921C82.606 61.1043 82.7187 60.9858 82.8016 60.8366C82.8844 60.6875 82.925 60.5201 82.9234 60.3345C82.925 60.1522 82.8853 59.9873 82.8041 59.8398C82.7245 59.6924 82.6143 59.5755 82.4735 59.4893C82.3326 59.4032 82.1718 59.3601 81.9912 59.3601C81.857 59.3601 81.7319 59.3858 81.6159 59.4371C81.4999 59.4885 81.3988 59.5598 81.3126 59.6509C81.2264 59.7404 81.1585 59.8448 81.1088 59.9641C81.0607 60.0818 81.0358 60.2077 81.0342 60.342C81.0358 60.5193 81.0773 60.6825 81.1585 60.8317C81.2397 60.9808 81.3515 61.1001 81.4941 61.1896C81.6366 61.2791 81.7981 61.3239 81.9788 61.3239Z" fill="#516569"/>
<path d="M34.8018 85.8359C34.782 85.6499 34.6982 85.505 34.5504 85.4013C34.4041 85.2976 34.2138 85.2457 33.9794 85.2457C33.8146 85.2457 33.6733 85.2706 33.5554 85.3203C33.4375 85.37 33.3473 85.4375 33.2848 85.5227C33.2223 85.608 33.1903 85.7053 33.1889 85.8146C33.1889 85.9055 33.2095 85.9844 33.2507 86.0511C33.2933 86.1179 33.3509 86.1747 33.4233 86.2216C33.4957 86.267 33.576 86.3054 33.6641 86.3366C33.7521 86.3679 33.8409 86.3942 33.9304 86.4155L34.3395 86.5178C34.5043 86.5561 34.6626 86.608 34.8146 86.6733C34.968 86.7386 35.1051 86.821 35.2259 86.9205C35.348 87.0199 35.4446 87.1399 35.5156 87.2805C35.5866 87.4212 35.6222 87.5859 35.6222 87.7749C35.6222 88.0305 35.5568 88.2557 35.4261 88.4503C35.2955 88.6435 35.1065 88.7947 34.8594 88.9041C34.6136 89.0121 34.3161 89.0661 33.9666 89.0661C33.6271 89.0661 33.3324 89.0135 33.0824 88.9084C32.8338 88.8033 32.6392 88.6499 32.4986 88.4482C32.3594 88.2464 32.2841 88.0007 32.2727 87.7109H33.0504C33.0618 87.8629 33.1087 87.9893 33.1911 88.0902C33.2734 88.1911 33.3807 88.2663 33.5128 88.3161C33.6463 88.3658 33.7955 88.3906 33.9602 88.3906C34.1321 88.3906 34.2827 88.3651 34.4119 88.3139C34.5426 88.2614 34.6449 88.1889 34.7188 88.0966C34.7926 88.0028 34.8303 87.8935 34.8317 87.7685C34.8303 87.6548 34.7969 87.5611 34.7315 87.4872C34.6662 87.4119 34.5746 87.3494 34.4567 87.2997C34.3402 87.2486 34.2038 87.2031 34.0476 87.1634L33.5511 87.0355C33.1918 86.9432 32.9077 86.8033 32.6989 86.6158C32.4915 86.4268 32.3878 86.1761 32.3878 85.8636C32.3878 85.6065 32.4574 85.3814 32.5966 85.1882C32.7372 84.995 32.9283 84.8452 33.1697 84.7386C33.4112 84.6307 33.6847 84.5767 33.9901 84.5767C34.2997 84.5767 34.571 84.6307 34.804 84.7386C35.0384 84.8452 35.2223 84.9936 35.3558 85.1839C35.4893 85.3729 35.5582 85.5902 35.5625 85.8359H34.8018ZM37.927 85.7273V86.3239H36.0456V85.7273H37.927ZM36.5101 84.9432H37.2814V88.0156C37.2814 88.1193 37.2971 88.1989 37.3283 88.2543C37.361 88.3082 37.4036 88.3452 37.4561 88.3651C37.5087 88.3849 37.5669 88.3949 37.6309 88.3949C37.6792 88.3949 37.7232 88.3913 37.763 88.3842C37.8042 88.3771 37.8354 88.3707 37.8567 88.3651L37.9867 88.968C37.9455 88.9822 37.8865 88.9979 37.8098 89.0149C37.7346 89.032 37.6422 89.0419 37.5328 89.0447C37.3397 89.0504 37.1657 89.0213 37.0108 88.9574C36.856 88.892 36.7331 88.7912 36.6422 88.6548C36.5527 88.5185 36.5087 88.348 36.5101 88.1435V84.9432ZM39.5138 89.0661C39.3065 89.0661 39.1197 89.0291 38.9535 88.9553C38.7887 88.88 38.658 88.7692 38.5614 88.6229C38.4663 88.4766 38.4187 88.2962 38.4187 88.0817C38.4187 87.897 38.4528 87.7443 38.521 87.6236C38.5891 87.5028 38.6822 87.4062 38.8001 87.3338C38.918 87.2614 39.0508 87.2067 39.1985 87.1697C39.3477 87.1314 39.5018 87.1037 39.6609 87.0866C39.8526 87.0668 40.0082 87.049 40.1275 87.0334C40.2468 87.0163 40.3335 86.9908 40.3874 86.9567C40.4428 86.9212 40.4705 86.8665 40.4705 86.7926V86.7798C40.4705 86.6193 40.4229 86.495 40.3278 86.407C40.2326 86.3189 40.0955 86.2749 39.9165 86.2749C39.7276 86.2749 39.5778 86.3161 39.467 86.3984C39.3576 86.4808 39.2837 86.5781 39.2454 86.6903L38.5252 86.5881C38.582 86.3892 38.6758 86.223 38.8065 86.0895C38.9371 85.9545 39.0969 85.8537 39.2859 85.7869C39.4748 85.7188 39.6836 85.6847 39.9123 85.6847C40.07 85.6847 40.2269 85.7031 40.3832 85.7401C40.5394 85.777 40.6822 85.8381 40.8114 85.9233C40.9407 86.0071 41.0444 86.1214 41.1225 86.2663C41.2021 86.4112 41.2418 86.5923 41.2418 86.8097V89H40.5004V88.5504H40.4748C40.4279 88.6413 40.3619 88.7266 40.2766 88.8061C40.1928 88.8842 40.087 88.9474 39.9592 88.9957C39.8327 89.0426 39.6843 89.0661 39.5138 89.0661ZM39.7141 88.4993C39.869 88.4993 40.0032 88.4687 40.1168 88.4077C40.2305 88.3452 40.3178 88.2628 40.3789 88.1605C40.4414 88.0582 40.4727 87.9467 40.4727 87.826V87.4403C40.4485 87.4602 40.4073 87.4787 40.3491 87.4957C40.2923 87.5128 40.2283 87.5277 40.1573 87.5405C40.0863 87.5533 40.016 87.5646 39.9464 87.5746C39.8768 87.5845 39.8164 87.593 39.7653 87.6001C39.6502 87.6158 39.5472 87.6413 39.4563 87.6768C39.3654 87.7124 39.2937 87.7621 39.2411 87.826C39.1886 87.8885 39.1623 87.9695 39.1623 88.0689C39.1623 88.2109 39.2141 88.3182 39.3178 88.3906C39.4215 88.4631 39.5536 88.4993 39.7141 88.4993ZM43.6516 85.7273V86.3239H41.7702V85.7273H43.6516ZM42.2347 84.9432H43.006V88.0156C43.006 88.1193 43.0217 88.1989 43.0529 88.2543C43.0856 88.3082 43.1282 88.3452 43.1808 88.3651C43.2333 88.3849 43.2915 88.3949 43.3555 88.3949C43.4038 88.3949 43.4478 88.3913 43.4876 88.3842C43.5288 88.3771 43.56 88.3707 43.5813 88.3651L43.7113 88.968C43.6701 88.9822 43.6112 88.9979 43.5344 89.0149C43.4592 89.032 43.3668 89.0419 43.2575 89.0447C43.0643 89.0504 42.8903 89.0213 42.7354 88.9574C42.5806 88.892 42.4577 88.7912 42.3668 88.6548C42.2773 88.5185 42.2333 88.348 42.2347 88.1435V84.9432ZM46.3826 87.6236V85.7273H47.1539V89H46.4061V88.4183H46.372C46.2981 88.6016 46.1767 88.7514 46.0076 88.8679C45.84 88.9844 45.6333 89.0426 45.3876 89.0426C45.1731 89.0426 44.9835 88.995 44.8187 88.8999C44.6554 88.8033 44.5275 88.6634 44.4352 88.4801C44.3429 88.2955 44.2967 88.0724 44.2967 87.8111V85.7273H45.068V87.6918C45.068 87.8991 45.1248 88.0639 45.2385 88.1861C45.3521 88.3082 45.5012 88.3693 45.6859 88.3693C45.7995 88.3693 45.9096 88.3416 46.0162 88.2862C46.1227 88.2308 46.21 88.1484 46.2782 88.0391C46.3478 87.9283 46.3826 87.7898 46.3826 87.6236ZM50.5337 86.5923L49.8306 86.669C49.8107 86.598 49.7759 86.5312 49.7262 86.4688C49.6779 86.4062 49.6126 86.3558 49.5302 86.3175C49.4478 86.2791 49.3469 86.2599 49.2276 86.2599C49.0671 86.2599 48.9322 86.2947 48.8228 86.3643C48.7148 86.4339 48.6616 86.5241 48.663 86.6349C48.6616 86.7301 48.6964 86.8075 48.7674 86.8672C48.8398 86.9268 48.9592 86.9759 49.1254 87.0142L49.6836 87.1335C49.9933 87.2003 50.2234 87.3061 50.3739 87.451C50.5259 87.5959 50.6026 87.7855 50.604 88.0199C50.6026 88.2259 50.5423 88.4077 50.4229 88.5653C50.305 88.7216 50.141 88.8437 49.9308 88.9318C49.7205 89.0199 49.479 89.0639 49.2063 89.0639C48.8058 89.0639 48.4833 88.9801 48.239 88.8125C47.9947 88.6435 47.8491 88.4084 47.8022 88.1072L48.5543 88.0348C48.5884 88.1825 48.6609 88.294 48.7717 88.3693C48.8825 88.4446 49.0266 88.4822 49.2042 88.4822C49.3874 88.4822 49.5344 88.4446 49.6452 88.3693C49.7575 88.294 49.8136 88.201 49.8136 88.0902C49.8136 87.9964 49.7773 87.919 49.7049 87.858C49.6339 87.7969 49.5231 87.75 49.3725 87.7173L48.8143 87.6001C48.5004 87.5348 48.2681 87.4247 48.1175 87.2699C47.967 87.1136 47.8924 86.9162 47.8938 86.6776C47.8924 86.4759 47.9471 86.3011 48.0579 86.1534C48.1701 86.0043 48.3256 85.8892 48.5245 85.8082C48.7248 85.7259 48.9556 85.6847 49.217 85.6847C49.6005 85.6847 49.9023 85.7663 50.1225 85.9297C50.3441 86.093 50.4812 86.3139 50.5337 86.5923Z" fill="#B5B5C9"/>
<path d="M32.5021 92.9091H33.6307L35.142 96.598H35.2017L36.7131 92.9091H37.8416V98H36.9567V94.5025H36.9094L35.5025 97.9851H34.8413L33.4343 94.495H33.3871V98H32.5021V92.9091ZM39.9048 98.0771C39.6629 98.0771 39.445 98.034 39.2511 97.9478C39.0588 97.86 38.9064 97.7307 38.7937 97.56C38.6826 97.3893 38.6271 97.1789 38.6271 96.9286C38.6271 96.7132 38.6669 96.535 38.7464 96.3942C38.826 96.2533 38.9345 96.1406 39.0721 96.0561C39.2096 95.9716 39.3646 95.9078 39.5369 95.8647C39.7109 95.82 39.8907 95.7876 40.0763 95.7678C40.3001 95.7446 40.4815 95.7238 40.6207 95.7056C40.7599 95.6857 40.861 95.6559 40.924 95.6161C40.9886 95.5747 41.021 95.5109 41.021 95.4247V95.4098C41.021 95.2225 40.9654 95.0775 40.8544 94.9748C40.7434 94.872 40.5835 94.8207 40.3746 94.8207C40.1542 94.8207 39.9794 94.8687 39.8501 94.9648C39.7225 95.061 39.6364 95.1745 39.5916 95.3054L38.7514 95.1861C38.8177 94.9541 38.9271 94.7602 39.0795 94.6044C39.232 94.447 39.4184 94.3293 39.6388 94.2514C39.8593 94.1719 40.1029 94.1321 40.3697 94.1321C40.5536 94.1321 40.7367 94.1536 40.919 94.1967C41.1013 94.2398 41.2679 94.3111 41.4187 94.4105C41.5695 94.5083 41.6905 94.6417 41.7816 94.8107C41.8744 94.9798 41.9208 95.1911 41.9208 95.4446V98H41.0558V97.4755H41.0259C40.9712 97.5816 40.8942 97.681 40.7947 97.7738C40.697 97.8649 40.5735 97.9387 40.4244 97.995C40.2769 98.0497 40.1037 98.0771 39.9048 98.0771ZM40.1385 97.4158C40.3191 97.4158 40.4757 97.3802 40.6083 97.3089C40.7409 97.236 40.8428 97.1399 40.9141 97.0206C40.987 96.9013 41.0234 96.7712 41.0234 96.6303V96.1804C40.9953 96.2036 40.9472 96.2251 40.8793 96.245C40.813 96.2649 40.7384 96.2823 40.6555 96.2972C40.5727 96.3121 40.4906 96.3254 40.4094 96.337C40.3282 96.3486 40.2578 96.3585 40.1982 96.3668C40.0639 96.3851 39.9438 96.4149 39.8377 96.4563C39.7317 96.4978 39.648 96.5558 39.5866 96.6303C39.5253 96.7032 39.4947 96.7977 39.4947 96.9137C39.4947 97.0794 39.5552 97.2045 39.6761 97.2891C39.7971 97.3736 39.9512 97.4158 40.1385 97.4158ZM42.8256 98V94.1818H43.6982V94.8182H43.7379C43.8075 94.5978 43.9268 94.4279 44.0959 94.3086C44.2666 94.1876 44.4613 94.1271 44.68 94.1271C44.7298 94.1271 44.7853 94.1296 44.8466 94.1346C44.9096 94.1379 44.9618 94.1437 45.0032 94.152V94.9798C44.9651 94.9665 44.9046 94.9549 44.8217 94.945C44.7405 94.9334 44.6618 94.9276 44.5856 94.9276C44.4215 94.9276 44.274 94.9632 44.1431 95.0344C44.0138 95.104 43.9119 95.201 43.8374 95.3253C43.7628 95.4496 43.7255 95.5929 43.7255 95.7553V98H42.8256ZM47.1093 98.0746C46.7281 98.0746 46.4008 97.9909 46.1274 97.8235C45.8556 97.6561 45.646 97.425 45.4985 97.13C45.3527 96.8333 45.2797 96.492 45.2797 96.1058C45.2797 95.718 45.3543 95.3758 45.5035 95.0792C45.6526 94.7809 45.8631 94.5489 46.1349 94.3832C46.4083 94.2158 46.7314 94.1321 47.1043 94.1321C47.4142 94.1321 47.6885 94.1893 47.9271 94.3036C48.1674 94.4163 48.3588 94.5762 48.5013 94.7834C48.6439 94.9889 48.7251 95.2292 48.7449 95.5043H47.8849C47.8501 95.3203 47.7672 95.167 47.6363 95.0444C47.507 94.9201 47.3338 94.858 47.1167 94.858C46.9328 94.858 46.7712 94.9077 46.632 95.0071C46.4928 95.1049 46.3843 95.2457 46.3064 95.4297C46.2301 95.6136 46.192 95.834 46.192 96.0909C46.192 96.3511 46.2301 96.5748 46.3064 96.7621C46.3826 96.9477 46.4895 97.091 46.627 97.1921C46.7662 97.2915 46.9295 97.3413 47.1167 97.3413C47.2493 97.3413 47.3678 97.3164 47.4722 97.2667C47.5783 97.2153 47.6669 97.1416 47.7382 97.0455C47.8095 96.9493 47.8583 96.8325 47.8849 96.695H48.7449C48.7234 96.9651 48.6439 97.2045 48.5063 97.4134C48.3688 97.6205 48.1815 97.7829 47.9445 97.9006C47.7075 98.0166 47.4291 98.0746 47.1093 98.0746ZM50.5826 98.0771C50.3406 98.0771 50.1227 98.034 49.9288 97.9478C49.7366 97.86 49.5841 97.7307 49.4714 97.56C49.3604 97.3893 49.3049 97.1789 49.3049 96.9286C49.3049 96.7132 49.3446 96.535 49.4242 96.3942C49.5037 96.2533 49.6123 96.1406 49.7498 96.0561C49.8874 95.9716 50.0423 95.9078 50.2147 95.8647C50.3887 95.82 50.5685 95.7876 50.7541 95.7678C50.9778 95.7446 51.1593 95.7238 51.2985 95.7056C51.4377 95.6857 51.5388 95.6559 51.6017 95.6161C51.6664 95.5747 51.6987 95.5109 51.6987 95.4247V95.4098C51.6987 95.2225 51.6432 95.0775 51.5321 94.9748C51.4211 94.872 51.2612 94.8207 51.0524 94.8207C50.832 94.8207 50.6571 94.8687 50.5279 94.9648C50.4003 95.061 50.3141 95.1745 50.2694 95.3054L49.4292 95.1861C49.4954 94.9541 49.6048 94.7602 49.7573 94.6044C49.9097 94.447 50.0962 94.3293 50.3166 94.2514C50.537 94.1719 50.7806 94.1321 51.0474 94.1321C51.2314 94.1321 51.4145 94.1536 51.5968 94.1967C51.7791 94.2398 51.9456 94.3111 52.0964 94.4105C52.2472 94.5083 52.3682 94.6417 52.4593 94.8107C52.5521 94.9798 52.5985 95.1911 52.5985 95.4446V98H51.7335V97.4755H51.7037C51.649 97.5816 51.5719 97.681 51.4725 97.7738C51.3747 97.8649 51.2512 97.9387 51.1021 97.995C50.9546 98.0497 50.7814 98.0771 50.5826 98.0771ZM50.8162 97.4158C50.9969 97.4158 51.1535 97.3802 51.286 97.3089C51.4186 97.236 51.5205 97.1399 51.5918 97.0206C51.6647 96.9013 51.7012 96.7712 51.7012 96.6303V96.1804C51.673 96.2036 51.6249 96.2251 51.557 96.245C51.4907 96.2649 51.4161 96.2823 51.3333 96.2972C51.2504 96.3121 51.1684 96.3254 51.0872 96.337C51.006 96.3486 50.9355 96.3585 50.8759 96.3668C50.7417 96.3851 50.6215 96.4149 50.5154 96.4563C50.4094 96.4978 50.3257 96.5558 50.2644 96.6303C50.2031 96.7032 50.1724 96.7977 50.1724 96.9137C50.1724 97.0794 50.2329 97.2045 50.3539 97.2891C50.4748 97.3736 50.629 97.4158 50.8162 97.4158ZM54.9203 98.0671C54.6203 98.0671 54.3519 97.9901 54.1149 97.8359C53.8779 97.6818 53.6906 97.4581 53.5531 97.1648C53.4155 96.8714 53.3468 96.5152 53.3468 96.0959C53.3468 95.6716 53.4164 95.3137 53.5556 95.022C53.6964 94.7287 53.8862 94.5075 54.1248 94.3583C54.3635 94.2075 54.6294 94.1321 54.9228 94.1321C55.1465 94.1321 55.3304 94.1702 55.4746 94.2464C55.6188 94.321 55.7331 94.4113 55.8176 94.5174C55.9022 94.6218 55.9676 94.7204 56.014 94.8132H56.0513V92.9091H56.9537V98H56.0687V97.3984H56.014C55.9676 97.4912 55.9005 97.5898 55.8127 97.6942C55.7248 97.797 55.6088 97.8848 55.4647 97.9577C55.3205 98.0307 55.139 98.0671 54.9203 98.0671ZM55.1713 97.3288C55.3619 97.3288 55.5243 97.2775 55.6586 97.1747C55.7928 97.0703 55.8947 96.9253 55.9643 96.7397C56.0339 96.5541 56.0687 96.3378 56.0687 96.0909C56.0687 95.844 56.0339 95.6294 55.9643 95.4471C55.8964 95.2648 55.7953 95.1231 55.661 95.022C55.5285 94.9209 55.3652 94.8704 55.1713 94.8704C54.9708 94.8704 54.8034 94.9226 54.6692 95.027C54.535 95.1314 54.4339 95.2756 54.3659 95.4595C54.298 95.6435 54.264 95.8539 54.264 96.0909C54.264 96.3295 54.298 96.5425 54.3659 96.7298C54.4355 96.9154 54.5375 97.062 54.6717 97.1697C54.8076 97.2758 54.9741 97.3288 55.1713 97.3288ZM59.578 98.0746C59.2052 98.0746 58.882 97.9925 58.6086 97.8285C58.3351 97.6644 58.123 97.4349 57.9722 97.1399C57.8231 96.8449 57.7485 96.5002 57.7485 96.1058C57.7485 95.7114 57.8231 95.3659 57.9722 95.0692C58.123 94.7726 58.3351 94.5423 58.6086 94.3782C58.882 94.2141 59.2052 94.1321 59.578 94.1321C59.9509 94.1321 60.2741 94.2141 60.5475 94.3782C60.8209 94.5423 61.0322 94.7726 61.1814 95.0692C61.3322 95.3659 61.4076 95.7114 61.4076 96.1058C61.4076 96.5002 61.3322 96.8449 61.1814 97.1399C61.0322 97.4349 60.8209 97.6644 60.5475 97.8285C60.2741 97.9925 59.9509 98.0746 59.578 98.0746ZM59.583 97.3537C59.7852 97.3537 59.9542 97.2982 60.0901 97.1871C60.226 97.0745 60.3271 96.9237 60.3934 96.7347C60.4613 96.5458 60.4953 96.3353 60.4953 96.1033C60.4953 95.8697 60.4613 95.6584 60.3934 95.4695C60.3271 95.2789 60.226 95.1272 60.0901 95.0146C59.9542 94.9019 59.7852 94.8455 59.583 94.8455C59.3759 94.8455 59.2035 94.9019 59.066 95.0146C58.9301 95.1272 58.8282 95.2789 58.7602 95.4695C58.6939 95.6584 58.6608 95.8697 58.6608 96.1033C58.6608 96.3353 58.6939 96.5458 58.7602 96.7347C58.8282 96.9237 58.9301 97.0745 59.066 97.1871C59.2035 97.2982 59.3759 97.3537 59.583 97.3537Z" fill="#516569"/>
<line x1="19.5" y1="32" x2="19.5" y2="44" stroke="#BFBFBF"/>
<path d="M27.4 56V60.6667C27.4 60.8729 27.3157 61.0708 27.1657 61.2166C27.0157 61.3625 26.8122 61.4444 26.6 61.4444C26.3878 61.4444 26.1843 61.3625 26.0343 61.2166C25.8843 61.0708 25.8 60.8729 25.8 60.6667V49.7778C25.8 49.5715 25.7157 49.3737 25.5657 49.2278C25.4157 49.0819 25.2122 49 25 49H13.8C13.5878 49 13.3843 49.0819 13.2343 49.2278C13.0843 49.3737 13 49.5715 13 49.7778V60.6667C13 61.9531 14.0768 63 15.4 63H26.6C27.9232 63 29 61.9531 29 60.6667V56H27.4ZM22.6 55.2222V56.7778H16.2V55.2222H22.6ZM16.2 53.6667V52.1111H22.6V53.6667H16.2ZM22.6 58.3333V59.8889H20.2V58.3333H22.6Z" fill="#516569"/>
</svg>
